solid OpenSCAD_Model
  facet normal -1 0 0
    outer loop
      vertex 0 -36.5 -736
      vertex 0 36.5 759
      vertex 0 36.5 -736
    endloop
  endfacet
  facet normal -1 0 0
    outer loop
      vertex 0 36.5 759
      vertex 0 -36.5 -736
      vertex 0 -36.5 759
    endloop
  endfacet
  facet normal 0 -1 0
    outer loop
      vertex 0 -36.5 759
      vertex 125 -36.5 686
      vertex 636.5 -36.5 759
    endloop
  endfacet
  facet normal 0 -1 0
    outer loop
      vertex 0 -36.5 -736
      vertex 125 -36.5 686
      vertex 0 -36.5 759
    endloop
  endfacet
  facet normal 0 -1 0
    outer loop
      vertex 125 -36.5 686
      vertex 0 -36.5 -736
      vertex 125 -36.5 -686
    endloop
  endfacet
  facet normal 0 -1 0
    outer loop
      vertex 318 -36.5 -736
      vertex 125 -36.5 -686
      vertex 0 -36.5 -736
    endloop
  endfacet
  facet normal 0 -1 0
    outer loop
      vertex 125 -36.5 -686
      vertex 318 -36.5 -736
      vertex 318 -36.5 -686
    endloop
  endfacet
  facet normal 0 -1 0
    outer loop
      vertex 636.5 -36.5 759
      vertex 125 -36.5 686
      vertex 636.5 -36.5 686
    endloop
  endfacet
  facet normal 0 1 0
    outer loop
      vertex 318 36.5 -686
      vertex 318 36.5 -736
      vertex 125 36.5 -686
    endloop
  endfacet
  facet normal 0 1 0
    outer loop
      vertex 125 36.5 686
      vertex 636.5 36.5 759
      vertex 636.5 36.5 686
    endloop
  endfacet
  facet normal 0 1 0
    outer loop
      vertex 636.5 36.5 759
      vertex 125 36.5 686
      vertex 0 36.5 759
    endloop
  endfacet
  facet normal 0 1 0
    outer loop
      vertex 0 36.5 -736
      vertex 125 36.5 686
      vertex 125 36.5 -686
    endloop
  endfacet
  facet normal 0 1 0
    outer loop
      vertex 125 36.5 686
      vertex 0 36.5 -736
      vertex 0 36.5 759
    endloop
  endfacet
  facet normal 0 1 0
    outer loop
      vertex 0 36.5 -736
      vertex 125 36.5 -686
      vertex 318 36.5 -736
    endloop
  endfacet
  facet normal 1 0 0
    outer loop
      vertex 125 -36.5 686
      vertex 125 36.5 -686
      vertex 125 36.5 686
    endloop
  endfacet
  facet normal 1 0 0
    outer loop
      vertex 125 36.5 -686
      vertex 125 -36.5 686
      vertex 125 -36.5 -686
    endloop
  endfacet
  facet normal 0 0 1
    outer loop
      vertex 125 36.5 -686
      vertex 318 -36.5 -686
      vertex 318 36.5 -686
    endloop
  endfacet
  facet normal 0 0 1
    outer loop
      vertex 318 -36.5 -686
      vertex 125 36.5 -686
      vertex 125 -36.5 -686
    endloop
  endfacet
  facet normal 0 0 -1
    outer loop
      vertex 125 -36.5 686
      vertex 636.5 36.5 686
      vertex 636.5 -36.5 686
    endloop
  endfacet
  facet normal 0 0 -1
    outer loop
      vertex 636.5 36.5 686
      vertex 125 -36.5 686
      vertex 125 36.5 686
    endloop
  endfacet
  facet normal 1 0 0
    outer loop
      vertex 636.5 -36.5 759
      vertex 636.5 36.5 686
      vertex 636.5 36.5 759
    endloop
  endfacet
  facet normal 1 0 0
    outer loop
      vertex 636.5 36.5 686
      vertex 636.5 -36.5 759
      vertex 636.5 -36.5 686
    endloop
  endfacet
  facet normal 0 0 1
    outer loop
      vertex 0 36.5 759
      vertex 636.5 -36.5 759
      vertex 636.5 36.5 759
    endloop
  endfacet
  facet normal 0 0 1
    outer loop
      vertex 636.5 -36.5 759
      vertex 0 36.5 759
      vertex 0 -36.5 759
    endloop
  endfacet
  facet normal 1 0 0
    outer loop
      vertex 318 -36.5 -686
      vertex 318 36.5 -736
      vertex 318 36.5 -686
    endloop
  endfacet
  facet normal 1 0 0
    outer loop
      vertex 318 36.5 -736
      vertex 318 -36.5 -686
      vertex 318 -36.5 -736
    endloop
  endfacet
  facet normal 0 0 -1
    outer loop
      vertex 0 -36.5 -736
      vertex 318 36.5 -736
      vertex 318 -36.5 -736
    endloop
  endfacet
  facet normal 0 0 -1
    outer loop
      vertex 318 36.5 -736
      vertex 0 -36.5 -736
      vertex 0 36.5 -736
    endloop
  endfacet
endsolid OpenSCAD_Model
