solid OpenSCAD_Model
  facet normal -1 0 0
    outer loop
      vertex -278.5 -5 0
      vertex -278.5 5 10
      vertex -278.5 5 0
    endloop
  endfacet
  facet normal -1 0 0
    outer loop
      vertex -278.5 5 10
      vertex -278.5 -5 0
      vertex -278.5 -5 10
    endloop
  endfacet
  facet normal 0 -1 0
    outer loop
      vertex 268.5 -5 0
      vertex 278.5 -5 10
      vertex 268.5 -5 10
    endloop
  endfacet
  facet normal 0 -1 0
    outer loop
      vertex 278.5 -5 10
      vertex 268.5 -5 0
      vertex 278.5 -5 0
    endloop
  endfacet
  facet normal 0 -1 0
    outer loop
      vertex -278.5 -5 0
      vertex -268.5 -5 10
      vertex -278.5 -5 10
    endloop
  endfacet
  facet normal 0 -1 0
    outer loop
      vertex -268.5 -5 10
      vertex -278.5 -5 0
      vertex -268.5 -5 0
    endloop
  endfacet
  facet normal 0 1 0
    outer loop
      vertex -268.5 5 0
      vertex -278.5 5 10
      vertex -268.5 5 10
    endloop
  endfacet
  facet normal 0 1 0
    outer loop
      vertex -278.5 5 10
      vertex -268.5 5 0
      vertex -278.5 5 0
    endloop
  endfacet
  facet normal 0 1 0
    outer loop
      vertex 278.5 5 0
      vertex 268.5 5 10
      vertex 278.5 5 10
    endloop
  endfacet
  facet normal 0 1 0
    outer loop
      vertex 268.5 5 10
      vertex 278.5 5 0
      vertex 268.5 5 0
    endloop
  endfacet
  facet normal 1 0 0
    outer loop
      vertex 278.5 -5 10
      vertex 278.5 5 0
      vertex 278.5 5 10
    endloop
  endfacet
  facet normal 1 0 0
    outer loop
      vertex 278.5 5 0
      vertex 278.5 -5 10
      vertex 278.5 -5 0
    endloop
  endfacet
  facet normal 0 0 -1
    outer loop
      vertex -278.5 -5 0
      vertex -268.5 5 0
      vertex -268.5 -5 0
    endloop
  endfacet
  facet normal 0 0 -1
    outer loop
      vertex -268.5 5 0
      vertex -278.5 -5 0
      vertex -278.5 5 0
    endloop
  endfacet
  facet normal 0 0 -1
    outer loop
      vertex -268.5 -5 0
      vertex -5 -268.5 0
      vertex -268.5 -268.5 0
    endloop
  endfacet
  facet normal 0 0 -1
    outer loop
      vertex -5 -268.5 0
      vertex -268.5 -5 0
      vertex -5 268.5 0
    endloop
  endfacet
  facet normal 0 0 -1
    outer loop
      vertex -268.5 5 0
      vertex -5 268.5 0
      vertex -268.5 -5 0
    endloop
  endfacet
  facet normal 0 0 -1
    outer loop
      vertex -5 268.5 0
      vertex -268.5 5 0
      vertex -268.5 268.5 0
    endloop
  endfacet
  facet normal 0 0 -1
    outer loop
      vertex -5 -268.5 0
      vertex 5 -268.5 0
      vertex 5 -278.5 0
    endloop
  endfacet
  facet normal 0 0 -1
    outer loop
      vertex 5 -268.5 0
      vertex -5 -268.5 0
      vertex 5 268.5 0
    endloop
  endfacet
  facet normal 0 0 -1
    outer loop
      vertex -5 -268.5 0
      vertex 5 -278.5 0
      vertex -5 -278.5 0
    endloop
  endfacet
  facet normal 0 0 -1
    outer loop
      vertex -5 268.5 0
      vertex 5 268.5 0
      vertex -5 -268.5 0
    endloop
  endfacet
  facet normal 0 0 -1
    outer loop
      vertex 5 268.5 0
      vertex -5 268.5 0
      vertex 5 278.5 0
    endloop
  endfacet
  facet normal 0 0 -1
    outer loop
      vertex 5 278.5 0
      vertex -5 268.5 0
      vertex -5 278.5 0
    endloop
  endfacet
  facet normal 0 0 -1
    outer loop
      vertex 5 -268.5 0
      vertex 268.5 -5 0
      vertex 268.5 -268.5 0
    endloop
  endfacet
  facet normal 0 0 -1
    outer loop
      vertex 268.5 -5 0
      vertex 5 -268.5 0
      vertex 268.5 5 0
    endloop
  endfacet
  facet normal 0 0 -1
    outer loop
      vertex 5 268.5 0
      vertex 268.5 5 0
      vertex 5 -268.5 0
    endloop
  endfacet
  facet normal 0 0 -1
    outer loop
      vertex 268.5 5 0
      vertex 5 268.5 0
      vertex 268.5 268.5 0
    endloop
  endfacet
  facet normal 0 0 -1
    outer loop
      vertex 268.5 -5 0
      vertex 278.5 5 0
      vertex 278.5 -5 0
    endloop
  endfacet
  facet normal 0 0 -1
    outer loop
      vertex 278.5 5 0
      vertex 268.5 -5 0
      vertex 268.5 5 0
    endloop
  endfacet
  facet normal 0 0 1
    outer loop
      vertex 268.5 5 10
      vertex 278.5 -5 10
      vertex 278.5 5 10
    endloop
  endfacet
  facet normal 0 0 1
    outer loop
      vertex 278.5 -5 10
      vertex 268.5 5 10
      vertex 268.5 -5 10
    endloop
  endfacet
  facet normal 0 0 1
    outer loop
      vertex -278.5 5 10
      vertex -268.5 -5 10
      vertex -268.5 5 10
    endloop
  endfacet
  facet normal 0 0 1
    outer loop
      vertex -268.5 -5 10
      vertex -278.5 5 10
      vertex -278.5 -5 10
    endloop
  endfacet
  facet normal 0 0 1
    outer loop
      vertex -5 -268.5 10
      vertex 5 -278.5 10
      vertex 5 -268.5 10
    endloop
  endfacet
  facet normal 0 0 1
    outer loop
      vertex 5 -278.5 10
      vertex -5 -268.5 10
      vertex -5 -278.5 10
    endloop
  endfacet
  facet normal 0 0 1
    outer loop
      vertex -5 278.5 10
      vertex 5 268.5 10
      vertex 5 278.5 10
    endloop
  endfacet
  facet normal 0 0 1
    outer loop
      vertex 5 268.5 10
      vertex -5 278.5 10
      vertex -5 268.5 10
    endloop
  endfacet
  facet normal -1 0 0
    outer loop
      vertex -5 -278.5 0
      vertex -5 -268.5 10
      vertex -5 -268.5 0
    endloop
  endfacet
  facet normal -1 0 0
    outer loop
      vertex -5 -268.5 10
      vertex -5 -278.5 0
      vertex -5 -278.5 10
    endloop
  endfacet
  facet normal -1 0 0
    outer loop
      vertex -5 268.5 0
      vertex -5 278.5 10
      vertex -5 278.5 0
    endloop
  endfacet
  facet normal -1 0 0
    outer loop
      vertex -5 278.5 10
      vertex -5 268.5 0
      vertex -5 268.5 10
    endloop
  endfacet
  facet normal 0 -1 0
    outer loop
      vertex -5 -278.5 0
      vertex 5 -278.5 10
      vertex -5 -278.5 10
    endloop
  endfacet
  facet normal 0 -1 0
    outer loop
      vertex 5 -278.5 10
      vertex -5 -278.5 0
      vertex 5 -278.5 0
    endloop
  endfacet
  facet normal 0 1 0
    outer loop
      vertex 5 278.5 0
      vertex -5 278.5 10
      vertex 5 278.5 10
    endloop
  endfacet
  facet normal 0 1 0
    outer loop
      vertex -5 278.5 10
      vertex 5 278.5 0
      vertex -5 278.5 0
    endloop
  endfacet
  facet normal 1 0 0
    outer loop
      vertex 5 -278.5 10
      vertex 5 -268.5 0
      vertex 5 -268.5 10
    endloop
  endfacet
  facet normal 1 0 0
    outer loop
      vertex 5 -268.5 0
      vertex 5 -278.5 10
      vertex 5 -278.5 0
    endloop
  endfacet
  facet normal 1 0 0
    outer loop
      vertex 5 268.5 10
      vertex 5 278.5 0
      vertex 5 278.5 10
    endloop
  endfacet
  facet normal 1 0 0
    outer loop
      vertex 5 278.5 0
      vertex 5 268.5 10
      vertex 5 268.5 0
    endloop
  endfacet
  facet normal -1 0 0
    outer loop
      vertex -268.5 -5 0
      vertex -268.5 -268.5 0
      vertex -268.5 -5 10
    endloop
  endfacet
  facet normal -1 0 0
    outer loop
      vertex -268.5 5 10
      vertex -268.5 268.5 0
      vertex -268.5 5 0
    endloop
  endfacet
  facet normal -1 0 0
    outer loop
      vertex -268.5 268.5 0
      vertex -268.5 5 10
      vertex -268.5 268.5 50
    endloop
  endfacet
  facet normal -1 0 0
    outer loop
      vertex -268.5 -5 10
      vertex -268.5 268.5 50
      vertex -268.5 5 10
    endloop
  endfacet
  facet normal -1 0 0
    outer loop
      vertex -268.5 -268.5 50
      vertex -268.5 -5 10
      vertex -268.5 -268.5 0
    endloop
  endfacet
  facet normal -1 0 0
    outer loop
      vertex -268.5 -5 10
      vertex -268.5 -268.5 50
      vertex -268.5 268.5 50
    endloop
  endfacet
  facet normal 0 -1 0
    outer loop
      vertex -268.5 -268.5 50
      vertex -5 -268.5 10
      vertex 268.5 -268.5 50
    endloop
  endfacet
  facet normal 0 -1 0
    outer loop
      vertex -268.5 -268.5 0
      vertex -5 -268.5 10
      vertex -268.5 -268.5 50
    endloop
  endfacet
  facet normal 0 -1 0
    outer loop
      vertex -5 -268.5 10
      vertex -268.5 -268.5 0
      vertex -5 -268.5 0
    endloop
  endfacet
  facet normal 0 -1 0
    outer loop
      vertex 5 -268.5 10
      vertex 268.5 -268.5 50
      vertex -5 -268.5 10
    endloop
  endfacet
  facet normal 0 -1 0
    outer loop
      vertex 268.5 -268.5 0
      vertex 5 -268.5 10
      vertex 5 -268.5 0
    endloop
  endfacet
  facet normal 0 -1 0
    outer loop
      vertex 5 -268.5 10
      vertex 268.5 -268.5 0
      vertex 268.5 -268.5 50
    endloop
  endfacet
  facet normal 0 1 0
    outer loop
      vertex 268.5 268.5 50
      vertex 5 268.5 10
      vertex -268.5 268.5 50
    endloop
  endfacet
  facet normal 0 1 0
    outer loop
      vertex 268.5 268.5 0
      vertex 5 268.5 10
      vertex 268.5 268.5 50
    endloop
  endfacet
  facet normal 0 1 0
    outer loop
      vertex 5 268.5 10
      vertex 268.5 268.5 0
      vertex 5 268.5 0
    endloop
  endfacet
  facet normal 0 1 0
    outer loop
      vertex -5 268.5 10
      vertex -268.5 268.5 50
      vertex 5 268.5 10
    endloop
  endfacet
  facet normal 0 1 0
    outer loop
      vertex -268.5 268.5 0
      vertex -5 268.5 10
      vertex -5 268.5 0
    endloop
  endfacet
  facet normal 0 1 0
    outer loop
      vertex -5 268.5 10
      vertex -268.5 268.5 0
      vertex -268.5 268.5 50
    endloop
  endfacet
  facet normal 1 0 0
    outer loop
      vertex 268.5 268.5 50
      vertex 268.5 5 10
      vertex 268.5 268.5 0
    endloop
  endfacet
  facet normal 1 0 0
    outer loop
      vertex 268.5 268.5 50
      vertex 268.5 -5 10
      vertex 268.5 5 10
    endloop
  endfacet
  facet normal 1 0 0
    outer loop
      vertex 268.5 -268.5 50
      vertex 268.5 -5 10
      vertex 268.5 268.5 50
    endloop
  endfacet
  facet normal 1 0 0
    outer loop
      vertex 268.5 -268.5 0
      vertex 268.5 -5 10
      vertex 268.5 -268.5 50
    endloop
  endfacet
  facet normal 1 0 0
    outer loop
      vertex 268.5 -5 10
      vertex 268.5 -268.5 0
      vertex 268.5 -5 0
    endloop
  endfacet
  facet normal 1 0 0
    outer loop
      vertex 268.5 268.5 0
      vertex 268.5 5 10
      vertex 268.5 5 0
    endloop
  endfacet
  facet normal 0 0 1
    outer loop
      vertex -268.5 268.5 50
      vertex 268.5 -268.5 50
      vertex 268.5 268.5 50
    endloop
  endfacet
  facet normal 0 0 1
    outer loop
      vertex 268.5 -268.5 50
      vertex -268.5 268.5 50
      vertex -268.5 -268.5 50
    endloop
  endfacet
endsolid OpenSCAD_Model
