solid OpenSCAD_Model
  facet normal -1 0 0
    outer loop
      vertex 2450 1700 -2005
      vertex 2450 2150 2270
      vertex 2450 2150 -2005
    endloop
  endfacet
  facet normal -1 0 0
    outer loop
      vertex 2450 2150 2270
      vertex 2450 1700 -2005
      vertex 2450 1700 2270
    endloop
  endfacet
  facet normal -1 0 0
    outer loop
      vertex 2450 100 100
      vertex 2450 1600 -2005
      vertex 2450 100 -100
    endloop
  endfacet
  facet normal -1 0 0
    outer loop
      vertex 2450 1600 -2005
      vertex 2450 -100 -100
      vertex 2450 100 -100
    endloop
  endfacet
  facet normal -1 0 0
    outer loop
      vertex 2450 -100 -100
      vertex 2450 -2875 -2005
      vertex 2450 -100 100
    endloop
  endfacet
  facet normal -1 0 0
    outer loop
      vertex 2450 -2875 -2005
      vertex 2450 -100 -100
      vertex 2450 1600 -2005
    endloop
  endfacet
  facet normal -1 0 0
    outer loop
      vertex 2450 1600 -2005
      vertex 2450 100 100
      vertex 2450 1600 2270
    endloop
  endfacet
  facet normal -1 0 0
    outer loop
      vertex 2450 -100 100
      vertex 2450 1600 2270
      vertex 2450 100 100
    endloop
  endfacet
  facet normal -1 0 0
    outer loop
      vertex 2450 -2875 2270
      vertex 2450 -100 100
      vertex 2450 -2875 -2005
    endloop
  endfacet
  facet normal -1 0 0
    outer loop
      vertex 2450 -100 100
      vertex 2450 -2875 2270
      vertex 2450 1600 2270
    endloop
  endfacet
  facet normal 1 0 0
    outer loop
      vertex 2450 1600 -2005
      vertex 2450 1700 -2374
      vertex 2450 1700 -2005
    endloop
  endfacet
  facet normal 1 0 0
    outer loop
      vertex 2450 1700 -2374
      vertex 2450 1600 -2005
      vertex 2450 1600 -2374
    endloop
  endfacet
  facet normal 0 0 -1
    outer loop
      vertex 2450 1600 -2005
      vertex 3450 -2875 -2005
      vertex 2450 -2875 -2005
    endloop
  endfacet
  facet normal 0 0 -1
    outer loop
      vertex 3450 -2875 -2005
      vertex 2450 1600 -2005
      vertex 3450 2150 -2005
    endloop
  endfacet
  facet normal 0 0 -1
    outer loop
      vertex 2450 1700 -2005
      vertex 3450 2150 -2005
      vertex 2450 1600 -2005
    endloop
  endfacet
  facet normal 0 0 -1
    outer loop
      vertex 3450 2150 -2005
      vertex 2450 1700 -2005
      vertex 2450 2150 -2005
    endloop
  endfacet
  facet normal 0 0 -1
    outer loop
      vertex -4295 1700 2270
      vertex 2450 2150 2270
      vertex 2450 1700 2270
    endloop
  endfacet
  facet normal 0 0 -1
    outer loop
      vertex 2450 2150 2270
      vertex -4295 1700 2270
      vertex -4295 2150 2270
    endloop
  endfacet
  facet normal 0 0 -1
    outer loop
      vertex -4295 -2875 2270
      vertex 2450 1600 2270
      vertex 2450 -2875 2270
    endloop
  endfacet
  facet normal 0 0 -1
    outer loop
      vertex 2450 1600 2270
      vertex -4295 -2875 2270
      vertex -4295 1600 2270
    endloop
  endfacet
  facet normal 1 0 0
    outer loop
      vertex 3450 2250 3270
      vertex 3450 2150 -2005
      vertex 3450 2250 -3374
    endloop
  endfacet
  facet normal 1 0 0
    outer loop
      vertex 3450 2250 3270
      vertex 3450 100 100
      vertex 3450 2150 -2005
    endloop
  endfacet
  facet normal 1 0 0
    outer loop
      vertex 3450 2250 3270
      vertex 3450 -100 100
      vertex 3450 100 100
    endloop
  endfacet
  facet normal 1 0 0
    outer loop
      vertex 3450 -2875 -2005
      vertex 3450 -100 100
      vertex 3450 -2875 3270
    endloop
  endfacet
  facet normal 1 0 0
    outer loop
      vertex 3450 -2875 3270
      vertex 3450 -100 100
      vertex 3450 2250 3270
    endloop
  endfacet
  facet normal 1 0 0
    outer loop
      vertex 3450 2250 -3374
      vertex 3450 2150 -2005
      vertex 3450 2150 -3374
    endloop
  endfacet
  facet normal 1 0 0
    outer loop
      vertex 3450 100 -100
      vertex 3450 2150 -2005
      vertex 3450 100 100
    endloop
  endfacet
  facet normal 1 0 0
    outer loop
      vertex 3450 -100 -100
      vertex 3450 2150 -2005
      vertex 3450 100 -100
    endloop
  endfacet
  facet normal 1 0 0
    outer loop
      vertex 3450 -100 -100
      vertex 3450 -2875 -2005
      vertex 3450 2150 -2005
    endloop
  endfacet
  facet normal 1 0 0
    outer loop
      vertex 3450 -100 100
      vertex 3450 -2875 -2005
      vertex 3450 -100 -100
    endloop
  endfacet
  facet normal 0 -1 0
    outer loop
      vertex -1895.12255859375 2150 1862.1240234375
      vertex -4295 2150 2270
      vertex -2004.87744140625 2150 1862.1240234375
    endloop
  endfacet
  facet normal 0 -1 0
    outer loop
      vertex -4295 2150 2270
      vertex -2112.23388671875 2150 1839.3046875
      vertex -2004.87744140625 2150 1862.1240234375
    endloop
  endfacet
  facet normal 0 -1 0
    outer loop
      vertex -4295 2150 2270
      vertex -2212.5 2150 1794.663330078125
      vertex -2112.23388671875 2150 1839.3046875
    endloop
  endfacet
  facet normal 0 -1 0
    outer loop
      vertex -4295 2150 2270
      vertex -2301.29345703125 2150 1730.1510009765625
      vertex -2212.5 2150 1794.663330078125
    endloop
  endfacet
  facet normal 0 -1 0
    outer loop
      vertex -4295 2150 2270
      vertex -2374.73388671875 2150 1648.5872802734375
      vertex -2301.29345703125 2150 1730.1510009765625
    endloop
  endfacet
  facet normal 0 -1 0
    outer loop
      vertex -4295 2150 2270
      vertex -2429.611328125 2150 1553.5367431640625
      vertex -2374.73388671875 2150 1648.5872802734375
    endloop
  endfacet
  facet normal 0 -1 0
    outer loop
      vertex -4295 2150 2270
      vertex -2463.527587890625 2150 1449.1536865234375
      vertex -2429.611328125 2150 1553.5367431640625
    endloop
  endfacet
  facet normal 0 -1 0
    outer loop
      vertex -4295 2150 2270
      vertex -2475 2150 1340
      vertex -2463.527587890625 2150 1449.1536865234375
    endloop
  endfacet
  facet normal 0 -1 0
    outer loop
      vertex -4295 2150 2270
      vertex -2463.527587890625 2150 1230.8463134765625
      vertex -2475 2150 1340
    endloop
  endfacet
  facet normal 0 -1 0
    outer loop
      vertex -4295 2150 2270
      vertex -2429.611328125 2150 1126.4632568359375
      vertex -2463.527587890625 2150 1230.8463134765625
    endloop
  endfacet
  facet normal 0 -1 0
    outer loop
      vertex -4295 2150 -2374
      vertex -2429.611328125 2150 1126.4632568359375
      vertex -4295 2150 2270
    endloop
  endfacet
  facet normal 0 -1 0
    outer loop
      vertex -2429.611328125 2150 1126.4632568359375
      vertex -4295 2150 -2374
      vertex -2374.73388671875 2150 1031.4127197265625
    endloop
  endfacet
  facet normal 0 -1 0
    outer loop
      vertex -2374.73388671875 2150 1031.4127197265625
      vertex -4295 2150 -2374
      vertex -2301.29345703125 2150 949.8489379882812
    endloop
  endfacet
  facet normal 0 -1 0
    outer loop
      vertex -2295 2150 -2374
      vertex -1895.12255859375 2150 817.8759765625
      vertex -2004.87744140625 2150 817.8759765625
    endloop
  endfacet
  facet normal 0 -1 0
    outer loop
      vertex -2295 2150 -2374
      vertex -2004.87744140625 2150 817.8759765625
      vertex -2112.23388671875 2150 840.6953125
    endloop
  endfacet
  facet normal 0 -1 0
    outer loop
      vertex -2295 2150 -2374
      vertex -2112.23388671875 2150 840.6953125
      vertex -2212.5 2150 885.336669921875
    endloop
  endfacet
  facet normal 0 -1 0
    outer loop
      vertex -2301.29345703125 2150 949.8489379882812
      vertex -4295 2150 -2374
      vertex -2212.5 2150 885.336669921875
    endloop
  endfacet
  facet normal 0 -1 0
    outer loop
      vertex -2295 2150 -2374
      vertex -2212.5 2150 885.336669921875
      vertex -4295 2150 -2374
    endloop
  endfacet
  facet normal 0 -1 0
    outer loop
      vertex -1895.12255859375 2150 817.8759765625
      vertex -2295 2150 -2374
      vertex 2450 2150 -2005
    endloop
  endfacet
  facet normal 0 -1 0
    outer loop
      vertex -2295 2150 -3374
      vertex 2450 2150 -2005
      vertex -2295 2150 -2374
    endloop
  endfacet
  facet normal 0 -1 0
    outer loop
      vertex 2450 2150 -2005
      vertex -2295 2150 -3374
      vertex 3450 2150 -3374
    endloop
  endfacet
  facet normal 0 -1 0
    outer loop
      vertex 2450 2150 -2005
      vertex 3450 2150 -3374
      vertex 3450 2150 -2005
    endloop
  endfacet
  facet normal 0 -1 0
    outer loop
      vertex -4295 2150 2270
      vertex -1895.12255859375 2150 1862.1240234375
      vertex 2450 2150 2270
    endloop
  endfacet
  facet normal 0 -1 0
    outer loop
      vertex -1787.76611328125 2150 1839.3046875
      vertex 2450 2150 2270
      vertex -1895.12255859375 2150 1862.1240234375
    endloop
  endfacet
  facet normal 0 -1 0
    outer loop
      vertex -1687.5 2150 1794.663330078125
      vertex 2450 2150 2270
      vertex -1787.76611328125 2150 1839.3046875
    endloop
  endfacet
  facet normal 0 -1 0
    outer loop
      vertex -1598.7064208984375 2150 1730.1510009765625
      vertex 2450 2150 2270
      vertex -1687.5 2150 1794.663330078125
    endloop
  endfacet
  facet normal 0 -1 0
    outer loop
      vertex -1525.26611328125 2150 1648.5872802734375
      vertex 2450 2150 2270
      vertex -1598.7064208984375 2150 1730.1510009765625
    endloop
  endfacet
  facet normal 0 -1 0
    outer loop
      vertex -1470.388671875 2150 1553.5367431640625
      vertex 2450 2150 2270
      vertex -1525.26611328125 2150 1648.5872802734375
    endloop
  endfacet
  facet normal 0 -1 0
    outer loop
      vertex -1436.4725341796875 2150 1449.1536865234375
      vertex 2450 2150 2270
      vertex -1470.388671875 2150 1553.5367431640625
    endloop
  endfacet
  facet normal 0 -1 0
    outer loop
      vertex -1425 2150 1340
      vertex 2450 2150 2270
      vertex -1436.4725341796875 2150 1449.1536865234375
    endloop
  endfacet
  facet normal 0 -1 0
    outer loop
      vertex -1436.4725341796875 2150 1230.8463134765625
      vertex 2450 2150 2270
      vertex -1425 2150 1340
    endloop
  endfacet
  facet normal 0 -1 0
    outer loop
      vertex -1470.388671875 2150 1126.4632568359375
      vertex 2450 2150 2270
      vertex -1436.4725341796875 2150 1230.8463134765625
    endloop
  endfacet
  facet normal 0 -1 0
    outer loop
      vertex 2450 2150 -2005
      vertex -1470.388671875 2150 1126.4632568359375
      vertex -1525.26611328125 2150 1031.4127197265625
    endloop
  endfacet
  facet normal 0 -1 0
    outer loop
      vertex 2450 2150 -2005
      vertex -1525.26611328125 2150 1031.4127197265625
      vertex -1598.7064208984375 2150 949.8489379882812
    endloop
  endfacet
  facet normal 0 -1 0
    outer loop
      vertex 2450 2150 -2005
      vertex -1598.7064208984375 2150 949.8489379882812
      vertex -1687.5 2150 885.336669921875
    endloop
  endfacet
  facet normal 0 -1 0
    outer loop
      vertex 2450 2150 -2005
      vertex -1687.5 2150 885.336669921875
      vertex -1787.76611328125 2150 840.6953125
    endloop
  endfacet
  facet normal 0 -1 0
    outer loop
      vertex -1470.388671875 2150 1126.4632568359375
      vertex 2450 2150 -2005
      vertex 2450 2150 2270
    endloop
  endfacet
  facet normal 0 -1 0
    outer loop
      vertex 2450 2150 -2005
      vertex -1787.76611328125 2150 840.6953125
      vertex -1895.12255859375 2150 817.8759765625
    endloop
  endfacet
  facet normal 0 -1 0
    outer loop
      vertex -6295 -2875 3270
      vertex -4295 -2875 2270
      vertex 3450 -2875 3270
    endloop
  endfacet
  facet normal 0 -1 0
    outer loop
      vertex -6295 -2875 3270
      vertex -4295 -2875 -2374
      vertex -4295 -2875 2270
    endloop
  endfacet
  facet normal 0 -1 0
    outer loop
      vertex -6295 -2875 -3374
      vertex -4295 -2875 -2374
      vertex -6295 -2875 3270
    endloop
  endfacet
  facet normal 0 -1 0
    outer loop
      vertex -2295 -2875 -3374
      vertex -4295 -2875 -2374
      vertex -6295 -2875 -3374
    endloop
  endfacet
  facet normal 0 -1 0
    outer loop
      vertex -4295 -2875 -2374
      vertex -2295 -2875 -3374
      vertex -2295 -2875 -2374
    endloop
  endfacet
  facet normal 0 -1 0
    outer loop
      vertex 2450 -2875 2270
      vertex 3450 -2875 3270
      vertex -4295 -2875 2270
    endloop
  endfacet
  facet normal 0 -1 0
    outer loop
      vertex 3450 -2875 -2005
      vertex 2450 -2875 2270
      vertex 2450 -2875 -2005
    endloop
  endfacet
  facet normal 0 -1 0
    outer loop
      vertex 2450 -2875 2270
      vertex 3450 -2875 -2005
      vertex 3450 -2875 3270
    endloop
  endfacet
  facet normal 0 0 1
    outer loop
      vertex 2450 100 -100
      vertex 3450 -100 -100
      vertex 3450 100 -100
    endloop
  endfacet
  facet normal 0 0 1
    outer loop
      vertex 3450 -100 -100
      vertex 2450 100 -100
      vertex 2450 -100 -100
    endloop
  endfacet
  facet normal 0 0 -1
    outer loop
      vertex 2450 -100 100
      vertex 3450 100 100
      vertex 3450 -100 100
    endloop
  endfacet
  facet normal 0 0 -1
    outer loop
      vertex 3450 100 100
      vertex 2450 -100 100
      vertex 2450 100 100
    endloop
  endfacet
  facet normal 0 -1 0
    outer loop
      vertex 2450 100 -100
      vertex 3450 100 100
      vertex 2450 100 100
    endloop
  endfacet
  facet normal 0 -1 0
    outer loop
      vertex 3450 100 100
      vertex 2450 100 -100
      vertex 3450 100 -100
    endloop
  endfacet
  facet normal 0 1 0
    outer loop
      vertex 3450 -100 -100
      vertex 2450 -100 100
      vertex 3450 -100 100
    endloop
  endfacet
  facet normal 0 1 0
    outer loop
      vertex 2450 -100 100
      vertex 3450 -100 -100
      vertex 2450 -100 -100
    endloop
  endfacet
  facet normal 1 0 0
    outer loop
      vertex -4295 1700 2270
      vertex -4295 2150 -2374
      vertex -4295 2150 2270
    endloop
  endfacet
  facet normal 1 0 0
    outer loop
      vertex -4295 2150 -2374
      vertex -4295 1700 2270
      vertex -4295 1700 -2374
    endloop
  endfacet
  facet normal 1 0 0
    outer loop
      vertex -4295 -2875 2270
      vertex -4295 1600 -2374
      vertex -4295 1600 2270
    endloop
  endfacet
  facet normal 1 0 0
    outer loop
      vertex -4295 1600 -2374
      vertex -4295 -2875 2270
      vertex -4295 -2875 -2374
    endloop
  endfacet
  facet normal 0 0 1
    outer loop
      vertex -4295 2150 -2374
      vertex -2295 1700 -2374
      vertex -2295 2150 -2374
    endloop
  endfacet
  facet normal 0 0 1
    outer loop
      vertex -2295 1700 -2374
      vertex -4295 2150 -2374
      vertex -4295 1700 -2374
    endloop
  endfacet
  facet normal 0 0 1
    outer loop
      vertex -4295 1600 -2374
      vertex -2295 -2875 -2374
      vertex -2295 1600 -2374
    endloop
  endfacet
  facet normal 0 0 1
    outer loop
      vertex -2295 -2875 -2374
      vertex -4295 1600 -2374
      vertex -4295 -2875 -2374
    endloop
  endfacet
  facet normal 0 0 -1
    outer loop
      vertex -2295 1600 -2374
      vertex 2450 1700 -2374
      vertex 2450 1600 -2374
    endloop
  endfacet
  facet normal 0 0 -1
    outer loop
      vertex 2450 1700 -2374
      vertex -2295 1600 -2374
      vertex -2295 1700 -2374
    endloop
  endfacet
  facet normal 0 1 0
    outer loop
      vertex 2450 1700 2270
      vertex -1892.5093994140625 1700 1886.987060546875
      vertex -4295 1700 2270
    endloop
  endfacet
  facet normal 0 1 0
    outer loop
      vertex 2450 1700 2270
      vertex -1780.0406494140625 1700 1863.0810546875
      vertex -1892.5093994140625 1700 1886.987060546875
    endloop
  endfacet
  facet normal 0 1 0
    outer loop
      vertex 2450 1700 2270
      vertex -1675 1700 1816.31396484375
      vertex -1780.0406494140625 1700 1863.0810546875
    endloop
  endfacet
  facet normal 0 1 0
    outer loop
      vertex 2450 1700 2270
      vertex -1581.9781494140625 1700 1748.7296142578125
      vertex -1675 1700 1816.31396484375
    endloop
  endfacet
  facet normal 0 1 0
    outer loop
      vertex 2450 1700 2270
      vertex -1505.0406494140625 1700 1663.2818603515625
      vertex -1581.9781494140625 1700 1748.7296142578125
    endloop
  endfacet
  facet normal 0 1 0
    outer loop
      vertex 2450 1700 2270
      vertex -1447.550048828125 1700 1563.7052001953125
      vertex -1505.0406494140625 1700 1663.2818603515625
    endloop
  endfacet
  facet normal 0 1 0
    outer loop
      vertex 2450 1700 2270
      vertex -1412.018798828125 1700 1454.3514404296875
      vertex -1447.550048828125 1700 1563.7052001953125
    endloop
  endfacet
  facet normal 0 1 0
    outer loop
      vertex 2450 1700 2270
      vertex -1400 1700 1340
      vertex -1412.018798828125 1700 1454.3514404296875
    endloop
  endfacet
  facet normal 0 1 0
    outer loop
      vertex -1171.884765625 1700 99.00672912597656
      vertex -1400 1700 1340
      vertex 2450 1700 2270
    endloop
  endfacet
  facet normal 0 1 0
    outer loop
      vertex -1400 1700 1340
      vertex -1171.884765625 1700 99.00672912597656
      vertex -1412.018798828125 1700 1225.6485595703125
    endloop
  endfacet
  facet normal 0 1 0
    outer loop
      vertex -1412.018798828125 1700 1225.6485595703125
      vertex -1171.884765625 1700 99.00672912597656
      vertex -1447.550048828125 1700 1116.2947998046875
    endloop
  endfacet
  facet normal 0 1 0
    outer loop
      vertex -1297.782470703125 1700 238.83033752441406
      vertex -1447.550048828125 1700 1116.2947998046875
      vertex -1171.884765625 1700 99.00672912597656
    endloop
  endfacet
  facet normal 0 1 0
    outer loop
      vertex -1447.550048828125 1700 1116.2947998046875
      vertex -1297.782470703125 1700 238.83033752441406
      vertex -1505.0406494140625 1700 1016.7181396484375
    endloop
  endfacet
  facet normal 0 1 0
    outer loop
      vertex -1505.0406494140625 1700 1016.7181396484375
      vertex -1450 1700 349.4228515625
      vertex -1581.9781494140625 1700 931.2703247070312
    endloop
  endfacet
  facet normal 0 1 0
    outer loop
      vertex -1994.0755615234375 1700 465.0697021484375
      vertex -1892.5093994140625 1700 793.012939453125
      vertex -1805.9244384765625 1700 465.0697021484375
    endloop
  endfacet
  facet normal 0 1 0
    outer loop
      vertex -1780.0406494140625 1700 816.9189453125
      vertex -1805.9244384765625 1700 465.0697021484375
      vertex -1892.5093994140625 1700 793.012939453125
    endloop
  endfacet
  facet normal 0 1 0
    outer loop
      vertex -1621.884765625 1700 425.95086669921875
      vertex -1581.9781494140625 1700 931.2703247070312
      vertex -1450 1700 349.4228515625
    endloop
  endfacet
  facet normal 0 1 0
    outer loop
      vertex -1780.0406494140625 1700 816.9189453125
      vertex -1621.884765625 1700 425.95086669921875
      vertex -1805.9244384765625 1700 465.0697021484375
    endloop
  endfacet
  facet normal 0 1 0
    outer loop
      vertex -1675 1700 863.68603515625
      vertex -1621.884765625 1700 425.95086669921875
      vertex -1780.0406494140625 1700 816.9189453125
    endloop
  endfacet
  facet normal 0 1 0
    outer loop
      vertex -1581.9781494140625 1700 931.2703247070312
      vertex -1621.884765625 1700 425.95086669921875
      vertex -1675 1700 863.68603515625
    endloop
  endfacet
  facet normal 0 1 0
    outer loop
      vertex -1450 1700 349.4228515625
      vertex -1505.0406494140625 1700 1016.7181396484375
      vertex -1297.782470703125 1700 238.83033752441406
    endloop
  endfacet
  facet normal 0 1 0
    outer loop
      vertex 2450 1700 2270
      vertex -1077.80908203125 1700 -63.93701934814453
      vertex -1171.884765625 1700 99.00672912597656
    endloop
  endfacet
  facet normal 0 1 0
    outer loop
      vertex 2450 1700 2270
      vertex -1019.6671752929688 1700 -242.8794708251953
      vertex -1077.80908203125 1700 -63.93701934814453
    endloop
  endfacet
  facet normal 0 1 0
    outer loop
      vertex 2450 1700 -2005
      vertex -1019.6671752929688 1700 -242.8794708251953
      vertex 2450 1700 2270
    endloop
  endfacet
  facet normal 0 1 0
    outer loop
      vertex -1019.6671752929688 1700 -242.8794708251953
      vertex 2450 1700 -2005
      vertex -1000 1700 -430
    endloop
  endfacet
  facet normal 0 1 0
    outer loop
      vertex -1000 1700 -430
      vertex 2450 1700 -2005
      vertex -1019.6671752929688 1700 -617.1205444335938
    endloop
  endfacet
  facet normal 0 1 0
    outer loop
      vertex -1019.6671752929688 1700 -617.1205444335938
      vertex 2450 1700 -2005
      vertex -1077.80908203125 1700 -796.06298828125
    endloop
  endfacet
  facet normal 0 1 0
    outer loop
      vertex -1077.80908203125 1700 -796.06298828125
      vertex 2450 1700 -2005
      vertex -1171.884765625 1700 -959.0067138671875
    endloop
  endfacet
  facet normal 0 1 0
    outer loop
      vertex -1450 1700 -1209.4228515625
      vertex -2295 1700 -2374
      vertex -1621.884765625 1700 -1285.9508056640625
    endloop
  endfacet
  facet normal 0 1 0
    outer loop
      vertex -2295 1700 -2374
      vertex -1450 1700 -1209.4228515625
      vertex 2450 1700 -2374
    endloop
  endfacet
  facet normal 0 1 0
    outer loop
      vertex -1297.782470703125 1700 -1098.830322265625
      vertex 2450 1700 -2374
      vertex -1450 1700 -1209.4228515625
    endloop
  endfacet
  facet normal 0 1 0
    outer loop
      vertex -1171.884765625 1700 -959.0067138671875
      vertex 2450 1700 -2374
      vertex -1297.782470703125 1700 -1098.830322265625
    endloop
  endfacet
  facet normal 0 1 0
    outer loop
      vertex 2450 1700 -2374
      vertex -1171.884765625 1700 -959.0067138671875
      vertex 2450 1700 -2005
    endloop
  endfacet
  facet normal 0 1 0
    outer loop
      vertex -2007.4906005859375 1700 1886.987060546875
      vertex -4295 1700 2270
      vertex -1892.5093994140625 1700 1886.987060546875
    endloop
  endfacet
  facet normal 0 1 0
    outer loop
      vertex -2119.959228515625 1700 1863.0810546875
      vertex -4295 1700 2270
      vertex -2007.4906005859375 1700 1886.987060546875
    endloop
  endfacet
  facet normal 0 1 0
    outer loop
      vertex -2225 1700 1816.31396484375
      vertex -4295 1700 2270
      vertex -2119.959228515625 1700 1863.0810546875
    endloop
  endfacet
  facet normal 0 1 0
    outer loop
      vertex -2318.021728515625 1700 1748.7296142578125
      vertex -4295 1700 2270
      vertex -2225 1700 1816.31396484375
    endloop
  endfacet
  facet normal 0 1 0
    outer loop
      vertex -2394.959228515625 1700 1663.2818603515625
      vertex -4295 1700 2270
      vertex -2318.021728515625 1700 1748.7296142578125
    endloop
  endfacet
  facet normal 0 1 0
    outer loop
      vertex -2452.449951171875 1700 1563.7052001953125
      vertex -4295 1700 2270
      vertex -2394.959228515625 1700 1663.2818603515625
    endloop
  endfacet
  facet normal 0 1 0
    outer loop
      vertex -2487.981201171875 1700 1454.3514404296875
      vertex -4295 1700 2270
      vertex -2452.449951171875 1700 1563.7052001953125
    endloop
  endfacet
  facet normal 0 1 0
    outer loop
      vertex -2500 1700 1340
      vertex -4295 1700 2270
      vertex -2487.981201171875 1700 1454.3514404296875
    endloop
  endfacet
  facet normal 0 1 0
    outer loop
      vertex -2487.981201171875 1700 1225.6485595703125
      vertex -4295 1700 2270
      vertex -2500 1700 1340
    endloop
  endfacet
  facet normal 0 1 0
    outer loop
      vertex -2628.115234375 1700 99.00672912597656
      vertex -2487.981201171875 1700 1225.6485595703125
      vertex -2452.449951171875 1700 1116.2947998046875
    endloop
  endfacet
  facet normal 0 1 0
    outer loop
      vertex -2502.217529296875 1700 238.83033752441406
      vertex -2452.449951171875 1700 1116.2947998046875
      vertex -2394.959228515625 1700 1016.7181396484375
    endloop
  endfacet
  facet normal 0 1 0
    outer loop
      vertex -2502.217529296875 1700 238.83033752441406
      vertex -2394.959228515625 1700 1016.7181396484375
      vertex -2318.021728515625 1700 931.2703247070312
    endloop
  endfacet
  facet normal 0 1 0
    outer loop
      vertex -2350 1700 349.4228515625
      vertex -2318.021728515625 1700 931.2703247070312
      vertex -2225 1700 863.68603515625
    endloop
  endfacet
  facet normal 0 1 0
    outer loop
      vertex -1892.5093994140625 1700 793.012939453125
      vertex -1994.0755615234375 1700 465.0697021484375
      vertex -2007.4906005859375 1700 793.012939453125
    endloop
  endfacet
  facet normal 0 1 0
    outer loop
      vertex -2007.4906005859375 1700 793.012939453125
      vertex -1994.0755615234375 1700 465.0697021484375
      vertex -2119.959228515625 1700 816.9189453125
    endloop
  endfacet
  facet normal 0 1 0
    outer loop
      vertex -2178.115234375 1700 425.95086669921875
      vertex -2119.959228515625 1700 816.9189453125
      vertex -1994.0755615234375 1700 465.0697021484375
    endloop
  endfacet
  facet normal 0 1 0
    outer loop
      vertex -2119.959228515625 1700 816.9189453125
      vertex -2178.115234375 1700 425.95086669921875
      vertex -2225 1700 863.68603515625
    endloop
  endfacet
  facet normal 0 1 0
    outer loop
      vertex -2350 1700 349.4228515625
      vertex -2225 1700 863.68603515625
      vertex -2178.115234375 1700 425.95086669921875
    endloop
  endfacet
  facet normal 0 1 0
    outer loop
      vertex -2318.021728515625 1700 931.2703247070312
      vertex -2350 1700 349.4228515625
      vertex -2502.217529296875 1700 238.83033752441406
    endloop
  endfacet
  facet normal 0 1 0
    outer loop
      vertex -2452.449951171875 1700 1116.2947998046875
      vertex -2502.217529296875 1700 238.83033752441406
      vertex -2628.115234375 1700 99.00672912597656
    endloop
  endfacet
  facet normal 0 1 0
    outer loop
      vertex -2487.981201171875 1700 1225.6485595703125
      vertex -2628.115234375 1700 99.00672912597656
      vertex -4295 1700 2270
    endloop
  endfacet
  facet normal 0 1 0
    outer loop
      vertex -2722.19091796875 1700 -63.93701934814453
      vertex -4295 1700 2270
      vertex -2628.115234375 1700 99.00672912597656
    endloop
  endfacet
  facet normal 0 1 0
    outer loop
      vertex -2780.332763671875 1700 -242.8794708251953
      vertex -4295 1700 2270
      vertex -2722.19091796875 1700 -63.93701934814453
    endloop
  endfacet
  facet normal 0 1 0
    outer loop
      vertex -2800 1700 -430
      vertex -4295 1700 2270
      vertex -2780.332763671875 1700 -242.8794708251953
    endloop
  endfacet
  facet normal 0 1 0
    outer loop
      vertex -4295 1700 -2374
      vertex -2800 1700 -430
      vertex -2780.332763671875 1700 -617.1205444335938
    endloop
  endfacet
  facet normal 0 1 0
    outer loop
      vertex -4295 1700 -2374
      vertex -2780.332763671875 1700 -617.1205444335938
      vertex -2722.19091796875 1700 -796.06298828125
    endloop
  endfacet
  facet normal 0 1 0
    outer loop
      vertex -1621.884765625 1700 -1285.9508056640625
      vertex -2295 1700 -2374
      vertex -1805.9244384765625 1700 -1325.0697021484375
    endloop
  endfacet
  facet normal 0 1 0
    outer loop
      vertex -1805.9244384765625 1700 -1325.0697021484375
      vertex -2295 1700 -2374
      vertex -1994.0755615234375 1700 -1325.0697021484375
    endloop
  endfacet
  facet normal 0 1 0
    outer loop
      vertex -1994.0755615234375 1700 -1325.0697021484375
      vertex -2295 1700 -2374
      vertex -2178.115234375 1700 -1285.9508056640625
    endloop
  endfacet
  facet normal 0 1 0
    outer loop
      vertex -2295 1700 -2374
      vertex -2350 1700 -1209.4228515625
      vertex -2178.115234375 1700 -1285.9508056640625
    endloop
  endfacet
  facet normal 0 1 0
    outer loop
      vertex -2295 1700 -2374
      vertex -2502.217529296875 1700 -1098.830322265625
      vertex -2350 1700 -1209.4228515625
    endloop
  endfacet
  facet normal 0 1 0
    outer loop
      vertex -4295 1700 -2374
      vertex -2502.217529296875 1700 -1098.830322265625
      vertex -2295 1700 -2374
    endloop
  endfacet
  facet normal 0 1 0
    outer loop
      vertex -2502.217529296875 1700 -1098.830322265625
      vertex -4295 1700 -2374
      vertex -2628.115234375 1700 -959.0067138671875
    endloop
  endfacet
  facet normal 0 1 0
    outer loop
      vertex -2628.115234375 1700 -959.0067138671875
      vertex -4295 1700 -2374
      vertex -2722.19091796875 1700 -796.06298828125
    endloop
  endfacet
  facet normal 0 1 0
    outer loop
      vertex -2800 1700 -430
      vertex -4295 1700 -2374
      vertex -4295 1700 2270
    endloop
  endfacet
  facet normal 0 -1 0
    outer loop
      vertex -1892.5093994140625 1600 1886.987060546875
      vertex -4295 1600 2270
      vertex -2007.4906005859375 1600 1886.987060546875
    endloop
  endfacet
  facet normal 0 -1 0
    outer loop
      vertex -4295 1600 2270
      vertex -2119.959228515625 1600 1863.0810546875
      vertex -2007.4906005859375 1600 1886.987060546875
    endloop
  endfacet
  facet normal 0 -1 0
    outer loop
      vertex -4295 1600 2270
      vertex -2225 1600 1816.31396484375
      vertex -2119.959228515625 1600 1863.0810546875
    endloop
  endfacet
  facet normal 0 -1 0
    outer loop
      vertex -4295 1600 2270
      vertex -2318.021728515625 1600 1748.7296142578125
      vertex -2225 1600 1816.31396484375
    endloop
  endfacet
  facet normal 0 -1 0
    outer loop
      vertex -4295 1600 2270
      vertex -2394.959228515625 1600 1663.2818603515625
      vertex -2318.021728515625 1600 1748.7296142578125
    endloop
  endfacet
  facet normal 0 -1 0
    outer loop
      vertex -4295 1600 2270
      vertex -2452.449951171875 1600 1563.7052001953125
      vertex -2394.959228515625 1600 1663.2818603515625
    endloop
  endfacet
  facet normal 0 -1 0
    outer loop
      vertex -4295 1600 2270
      vertex -2487.981201171875 1600 1454.3514404296875
      vertex -2452.449951171875 1600 1563.7052001953125
    endloop
  endfacet
  facet normal 0 -1 0
    outer loop
      vertex -4295 1600 2270
      vertex -2500 1600 1340
      vertex -2487.981201171875 1600 1454.3514404296875
    endloop
  endfacet
  facet normal 0 -1 0
    outer loop
      vertex -4295 1600 2270
      vertex -2487.981201171875 1600 1225.6485595703125
      vertex -2500 1600 1340
    endloop
  endfacet
  facet normal 0 -1 0
    outer loop
      vertex -2628.115234375 1600 99.00672912597656
      vertex -2487.981201171875 1600 1225.6485595703125
      vertex -4295 1600 2270
    endloop
  endfacet
  facet normal 0 -1 0
    outer loop
      vertex -2487.981201171875 1600 1225.6485595703125
      vertex -2628.115234375 1600 99.00672912597656
      vertex -2452.449951171875 1600 1116.2947998046875
    endloop
  endfacet
  facet normal 0 -1 0
    outer loop
      vertex -2502.217529296875 1600 238.83033752441406
      vertex -2452.449951171875 1600 1116.2947998046875
      vertex -2628.115234375 1600 99.00672912597656
    endloop
  endfacet
  facet normal 0 -1 0
    outer loop
      vertex -2452.449951171875 1600 1116.2947998046875
      vertex -2502.217529296875 1600 238.83033752441406
      vertex -2394.959228515625 1600 1016.7181396484375
    endloop
  endfacet
  facet normal 0 -1 0
    outer loop
      vertex -2007.4906005859375 1600 793.012939453125
      vertex -1994.0755615234375 1600 465.0697021484375
      vertex -1892.5093994140625 1600 793.012939453125
    endloop
  endfacet
  facet normal 0 -1 0
    outer loop
      vertex -2119.959228515625 1600 816.9189453125
      vertex -1994.0755615234375 1600 465.0697021484375
      vertex -2007.4906005859375 1600 793.012939453125
    endloop
  endfacet
  facet normal 0 -1 0
    outer loop
      vertex -2178.115234375 1600 425.95086669921875
      vertex -2119.959228515625 1600 816.9189453125
      vertex -2225 1600 863.68603515625
    endloop
  endfacet
  facet normal 0 -1 0
    outer loop
      vertex -2350 1600 349.4228515625
      vertex -2318.021728515625 1600 931.2703247070312
      vertex -2502.217529296875 1600 238.83033752441406
    endloop
  endfacet
  facet normal 0 -1 0
    outer loop
      vertex -2119.959228515625 1600 816.9189453125
      vertex -2178.115234375 1600 425.95086669921875
      vertex -1994.0755615234375 1600 465.0697021484375
    endloop
  endfacet
  facet normal 0 -1 0
    outer loop
      vertex -2225 1600 863.68603515625
      vertex -2350 1600 349.4228515625
      vertex -2178.115234375 1600 425.95086669921875
    endloop
  endfacet
  facet normal 0 -1 0
    outer loop
      vertex -2318.021728515625 1600 931.2703247070312
      vertex -2350 1600 349.4228515625
      vertex -2225 1600 863.68603515625
    endloop
  endfacet
  facet normal 0 -1 0
    outer loop
      vertex -2394.959228515625 1600 1016.7181396484375
      vertex -2502.217529296875 1600 238.83033752441406
      vertex -2318.021728515625 1600 931.2703247070312
    endloop
  endfacet
  facet normal 0 -1 0
    outer loop
      vertex -4295 1600 2270
      vertex -2722.19091796875 1600 -63.93701934814453
      vertex -2628.115234375 1600 99.00672912597656
    endloop
  endfacet
  facet normal 0 -1 0
    outer loop
      vertex -4295 1600 2270
      vertex -2780.332763671875 1600 -242.8794708251953
      vertex -2722.19091796875 1600 -63.93701934814453
    endloop
  endfacet
  facet normal 0 -1 0
    outer loop
      vertex -4295 1600 2270
      vertex -2800 1600 -430
      vertex -2780.332763671875 1600 -242.8794708251953
    endloop
  endfacet
  facet normal 0 -1 0
    outer loop
      vertex -4295 1600 -2374
      vertex -2800 1600 -430
      vertex -4295 1600 2270
    endloop
  endfacet
  facet normal 0 -1 0
    outer loop
      vertex -2800 1600 -430
      vertex -4295 1600 -2374
      vertex -2780.332763671875 1600 -617.1205444335938
    endloop
  endfacet
  facet normal 0 -1 0
    outer loop
      vertex -2295 1600 -2374
      vertex -1805.9244384765625 1600 -1325.0697021484375
      vertex -1994.0755615234375 1600 -1325.0697021484375
    endloop
  endfacet
  facet normal 0 -1 0
    outer loop
      vertex -2780.332763671875 1600 -617.1205444335938
      vertex -4295 1600 -2374
      vertex -2722.19091796875 1600 -796.06298828125
    endloop
  endfacet
  facet normal 0 -1 0
    outer loop
      vertex -4295 1600 -2374
      vertex -2628.115234375 1600 -959.0067138671875
      vertex -2722.19091796875 1600 -796.06298828125
    endloop
  endfacet
  facet normal 0 -1 0
    outer loop
      vertex -4295 1600 -2374
      vertex -2502.217529296875 1600 -1098.830322265625
      vertex -2628.115234375 1600 -959.0067138671875
    endloop
  endfacet
  facet normal 0 -1 0
    outer loop
      vertex -2295 1600 -2374
      vertex -2502.217529296875 1600 -1098.830322265625
      vertex -4295 1600 -2374
    endloop
  endfacet
  facet normal 0 -1 0
    outer loop
      vertex -2502.217529296875 1600 -1098.830322265625
      vertex -2295 1600 -2374
      vertex -2350 1600 -1209.4228515625
    endloop
  endfacet
  facet normal 0 -1 0
    outer loop
      vertex -2350 1600 -1209.4228515625
      vertex -2295 1600 -2374
      vertex -2178.115234375 1600 -1285.9508056640625
    endloop
  endfacet
  facet normal 0 -1 0
    outer loop
      vertex -2178.115234375 1600 -1285.9508056640625
      vertex -2295 1600 -2374
      vertex -1994.0755615234375 1600 -1325.0697021484375
    endloop
  endfacet
  facet normal 0 -1 0
    outer loop
      vertex -1805.9244384765625 1600 -1325.0697021484375
      vertex -2295 1600 -2374
      vertex 2450 1600 -2374
    endloop
  endfacet
  facet normal 0 -1 0
    outer loop
      vertex -1805.9244384765625 1600 -1325.0697021484375
      vertex 2450 1600 -2374
      vertex 2450 1600 -2005
    endloop
  endfacet
  facet normal 0 -1 0
    outer loop
      vertex -4295 1600 2270
      vertex -1892.5093994140625 1600 1886.987060546875
      vertex 2450 1600 2270
    endloop
  endfacet
  facet normal 0 -1 0
    outer loop
      vertex -1780.0406494140625 1600 1863.0810546875
      vertex 2450 1600 2270
      vertex -1892.5093994140625 1600 1886.987060546875
    endloop
  endfacet
  facet normal 0 -1 0
    outer loop
      vertex -1675 1600 1816.31396484375
      vertex 2450 1600 2270
      vertex -1780.0406494140625 1600 1863.0810546875
    endloop
  endfacet
  facet normal 0 -1 0
    outer loop
      vertex -1581.9781494140625 1600 1748.7296142578125
      vertex 2450 1600 2270
      vertex -1675 1600 1816.31396484375
    endloop
  endfacet
  facet normal 0 -1 0
    outer loop
      vertex -1505.0406494140625 1600 1663.2818603515625
      vertex 2450 1600 2270
      vertex -1581.9781494140625 1600 1748.7296142578125
    endloop
  endfacet
  facet normal 0 -1 0
    outer loop
      vertex -1447.550048828125 1600 1563.7052001953125
      vertex 2450 1600 2270
      vertex -1505.0406494140625 1600 1663.2818603515625
    endloop
  endfacet
  facet normal 0 -1 0
    outer loop
      vertex -1412.018798828125 1600 1454.3514404296875
      vertex 2450 1600 2270
      vertex -1447.550048828125 1600 1563.7052001953125
    endloop
  endfacet
  facet normal 0 -1 0
    outer loop
      vertex -1400 1600 1340
      vertex 2450 1600 2270
      vertex -1412.018798828125 1600 1454.3514404296875
    endloop
  endfacet
  facet normal 0 -1 0
    outer loop
      vertex -1171.884765625 1600 99.00672912597656
      vertex -1400 1600 1340
      vertex -1412.018798828125 1600 1225.6485595703125
    endloop
  endfacet
  facet normal 0 -1 0
    outer loop
      vertex -1171.884765625 1600 99.00672912597656
      vertex -1412.018798828125 1600 1225.6485595703125
      vertex -1447.550048828125 1600 1116.2947998046875
    endloop
  endfacet
  facet normal 0 -1 0
    outer loop
      vertex -1297.782470703125 1600 238.83033752441406
      vertex -1447.550048828125 1600 1116.2947998046875
      vertex -1505.0406494140625 1600 1016.7181396484375
    endloop
  endfacet
  facet normal 0 -1 0
    outer loop
      vertex -1450 1600 349.4228515625
      vertex -1505.0406494140625 1600 1016.7181396484375
      vertex -1581.9781494140625 1600 931.2703247070312
    endloop
  endfacet
  facet normal 0 -1 0
    outer loop
      vertex -1621.884765625 1600 425.95086669921875
      vertex -1581.9781494140625 1600 931.2703247070312
      vertex -1675 1600 863.68603515625
    endloop
  endfacet
  facet normal 0 -1 0
    outer loop
      vertex -1621.884765625 1600 425.95086669921875
      vertex -1675 1600 863.68603515625
      vertex -1780.0406494140625 1600 816.9189453125
    endloop
  endfacet
  facet normal 0 -1 0
    outer loop
      vertex -1805.9244384765625 1600 465.0697021484375
      vertex -1892.5093994140625 1600 793.012939453125
      vertex -1994.0755615234375 1600 465.0697021484375
    endloop
  endfacet
  facet normal 0 -1 0
    outer loop
      vertex -1892.5093994140625 1600 793.012939453125
      vertex -1805.9244384765625 1600 465.0697021484375
      vertex -1780.0406494140625 1600 816.9189453125
    endloop
  endfacet
  facet normal 0 -1 0
    outer loop
      vertex -1621.884765625 1600 425.95086669921875
      vertex -1780.0406494140625 1600 816.9189453125
      vertex -1805.9244384765625 1600 465.0697021484375
    endloop
  endfacet
  facet normal 0 -1 0
    outer loop
      vertex -1581.9781494140625 1600 931.2703247070312
      vertex -1621.884765625 1600 425.95086669921875
      vertex -1450 1600 349.4228515625
    endloop
  endfacet
  facet normal 0 -1 0
    outer loop
      vertex -1505.0406494140625 1600 1016.7181396484375
      vertex -1450 1600 349.4228515625
      vertex -1297.782470703125 1600 238.83033752441406
    endloop
  endfacet
  facet normal 0 -1 0
    outer loop
      vertex -1447.550048828125 1600 1116.2947998046875
      vertex -1297.782470703125 1600 238.83033752441406
      vertex -1171.884765625 1600 99.00672912597656
    endloop
  endfacet
  facet normal 0 -1 0
    outer loop
      vertex -1400 1600 1340
      vertex -1171.884765625 1600 99.00672912597656
      vertex 2450 1600 2270
    endloop
  endfacet
  facet normal 0 -1 0
    outer loop
      vertex -1077.80908203125 1600 -63.93701934814453
      vertex 2450 1600 2270
      vertex -1171.884765625 1600 99.00672912597656
    endloop
  endfacet
  facet normal 0 -1 0
    outer loop
      vertex -1019.6671752929688 1600 -242.8794708251953
      vertex 2450 1600 2270
      vertex -1077.80908203125 1600 -63.93701934814453
    endloop
  endfacet
  facet normal 0 -1 0
    outer loop
      vertex 2450 1600 -2005
      vertex -1019.6671752929688 1600 -242.8794708251953
      vertex -1000 1600 -430
    endloop
  endfacet
  facet normal 0 -1 0
    outer loop
      vertex 2450 1600 -2005
      vertex -1000 1600 -430
      vertex -1019.6671752929688 1600 -617.1205444335938
    endloop
  endfacet
  facet normal 0 -1 0
    outer loop
      vertex 2450 1600 -2005
      vertex -1019.6671752929688 1600 -617.1205444335938
      vertex -1077.80908203125 1600 -796.06298828125
    endloop
  endfacet
  facet normal 0 -1 0
    outer loop
      vertex 2450 1600 -2005
      vertex -1077.80908203125 1600 -796.06298828125
      vertex -1171.884765625 1600 -959.0067138671875
    endloop
  endfacet
  facet normal 0 -1 0
    outer loop
      vertex 2450 1600 -2005
      vertex -1171.884765625 1600 -959.0067138671875
      vertex -1297.782470703125 1600 -1098.830322265625
    endloop
  endfacet
  facet normal 0 -1 0
    outer loop
      vertex -1019.6671752929688 1600 -242.8794708251953
      vertex 2450 1600 -2005
      vertex 2450 1600 2270
    endloop
  endfacet
  facet normal 0 -1 0
    outer loop
      vertex -1450 1600 -1209.4228515625
      vertex 2450 1600 -2005
      vertex -1297.782470703125 1600 -1098.830322265625
    endloop
  endfacet
  facet normal 0 -1 0
    outer loop
      vertex -1621.884765625 1600 -1285.9508056640625
      vertex 2450 1600 -2005
      vertex -1450 1600 -1209.4228515625
    endloop
  endfacet
  facet normal 0 -1 0
    outer loop
      vertex 2450 1600 -2005
      vertex -1621.884765625 1600 -1285.9508056640625
      vertex -1805.9244384765625 1600 -1325.0697021484375
    endloop
  endfacet
  facet normal 0.5877852714110393 0 -0.8090169804844958
    outer loop
      vertex -2502.217529296875 1600 238.83033752441406
      vertex -2350 1700 349.4228515625
      vertex -2350 1600 349.4228515625
    endloop
  endfacet
  facet normal 0.5877852714110393 0 -0.8090169804844958
    outer loop
      vertex -2350 1700 349.4228515625
      vertex -2502.217529296875 1600 238.83033752441406
      vertex -2502.217529296875 1700 238.83033752441406
    endloop
  endfacet
  facet normal 0.9945218532630682 0 -0.10452886387114414
    outer loop
      vertex -2780.332763671875 1600 -242.8794708251953
      vertex -2800 1700 -430
      vertex -2780.332763671875 1700 -242.8794708251953
    endloop
  endfacet
  facet normal 0.9945218532630682 0 -0.10452886387114414
    outer loop
      vertex -2800 1700 -430
      vertex -2780.332763671875 1600 -242.8794708251953
      vertex -2800 1600 -430
    endloop
  endfacet
  facet normal -0.7431449243531789 0 0.6691304965461581
    outer loop
      vertex -1297.782470703125 1600 -1098.830322265625
      vertex -1171.884765625 1700 -959.0067138671875
      vertex -1297.782470703125 1700 -1098.830322265625
    endloop
  endfacet
  facet normal -0.7431449243531789 0 0.6691304965461581
    outer loop
      vertex -1171.884765625 1700 -959.0067138671875
      vertex -1297.782470703125 1600 -1098.830322265625
      vertex -1171.884765625 1600 -959.0067138671875
    endloop
  endfacet
  facet normal -0.4067363142986427 0 0.9135456040235514
    outer loop
      vertex -1621.884765625 1700 -1285.9508056640625
      vertex -1450 1600 -1209.4228515625
      vertex -1450 1700 -1209.4228515625
    endloop
  endfacet
  facet normal -0.4067363142986427 0 0.9135456040235514
    outer loop
      vertex -1450 1600 -1209.4228515625
      vertex -1621.884765625 1700 -1285.9508056640625
      vertex -1621.884765625 1600 -1285.9508056640625
    endloop
  endfacet
  facet normal -0.20791197768073805 0 0.9781475397591533
    outer loop
      vertex -1805.9244384765625 1700 -1325.0697021484375
      vertex -1621.884765625 1600 -1285.9508056640625
      vertex -1621.884765625 1700 -1285.9508056640625
    endloop
  endfacet
  facet normal -0.20791197768073805 0 0.9781475397591533
    outer loop
      vertex -1621.884765625 1600 -1285.9508056640625
      vertex -1805.9244384765625 1700 -1325.0697021484375
      vertex -1805.9244384765625 1600 -1325.0697021484375
    endloop
  endfacet
  facet normal 0.9945218541491737 0 0.104528855440447
    outer loop
      vertex -2800 1600 -430
      vertex -2780.332763671875 1700 -617.1205444335938
      vertex -2800 1700 -430
    endloop
  endfacet
  facet normal 0.9945218541491737 0 0.104528855440447
    outer loop
      vertex -2780.332763671875 1700 -617.1205444335938
      vertex -2800 1600 -430
      vertex -2780.332763671875 1600 -617.1205444335938
    endloop
  endfacet
  facet normal 0.20791197768073805 0 0.9781475397591533
    outer loop
      vertex -2178.115234375 1700 -1285.9508056640625
      vertex -1994.0755615234375 1600 -1325.0697021484375
      vertex -1994.0755615234375 1700 -1325.0697021484375
    endloop
  endfacet
  facet normal 0.20791197768073805 0 0.9781475397591533
    outer loop
      vertex -1994.0755615234375 1600 -1325.0697021484375
      vertex -2178.115234375 1700 -1285.9508056640625
      vertex -2178.115234375 1600 -1285.9508056640625
    endloop
  endfacet
  facet normal 0.4067363142986427 0 0.9135456040235514
    outer loop
      vertex -2350 1700 -1209.4228515625
      vertex -2178.115234375 1600 -1285.9508056640625
      vertex -2178.115234375 1700 -1285.9508056640625
    endloop
  endfacet
  facet normal 0.4067363142986427 0 0.9135456040235514
    outer loop
      vertex -2178.115234375 1600 -1285.9508056640625
      vertex -2350 1700 -1209.4228515625
      vertex -2350 1600 -1209.4228515625
    endloop
  endfacet
  facet normal -0.5877853244907174 0 0.8090169419198475
    outer loop
      vertex -1450 1700 -1209.4228515625
      vertex -1297.782470703125 1600 -1098.830322265625
      vertex -1297.782470703125 1700 -1098.830322265625
    endloop
  endfacet
  facet normal -0.5877853244907174 0 0.8090169419198475
    outer loop
      vertex -1297.782470703125 1600 -1098.830322265625
      vertex -1450 1700 -1209.4228515625
      vertex -1450 1600 -1209.4228515625
    endloop
  endfacet
  facet normal 0.5877853244907174 0 0.8090169419198475
    outer loop
      vertex -2502.217529296875 1700 -1098.830322265625
      vertex -2350 1600 -1209.4228515625
      vertex -2350 1700 -1209.4228515625
    endloop
  endfacet
  facet normal 0.5877853244907174 0 0.8090169419198475
    outer loop
      vertex -2350 1600 -1209.4228515625
      vertex -2502.217529296875 1700 -1098.830322265625
      vertex -2502.217529296875 1600 -1098.830322265625
    endloop
  endfacet
  facet normal 0 0 1
    outer loop
      vertex -1994.0755615234375 1700 -1325.0697021484375
      vertex -1805.9244384765625 1600 -1325.0697021484375
      vertex -1805.9244384765625 1700 -1325.0697021484375
    endloop
  endfacet
  facet normal 0 0 1
    outer loop
      vertex -1805.9244384765625 1600 -1325.0697021484375
      vertex -1994.0755615234375 1700 -1325.0697021484375
      vertex -1994.0755615234375 1600 -1325.0697021484375
    endloop
  endfacet
  facet normal -0.7431449243531789 0 -0.6691304965461581
    outer loop
      vertex -1171.884765625 1600 99.00672912597656
      vertex -1297.782470703125 1700 238.83033752441406
      vertex -1171.884765625 1700 99.00672912597656
    endloop
  endfacet
  facet normal -0.7431449243531789 0 -0.6691304965461581
    outer loop
      vertex -1297.782470703125 1700 238.83033752441406
      vertex -1171.884765625 1600 99.00672912597656
      vertex -1297.782470703125 1600 238.83033752441406
    endloop
  endfacet
  facet normal -0.5877852714110393 0 -0.8090169804844958
    outer loop
      vertex -1450 1600 349.4228515625
      vertex -1297.782470703125 1700 238.83033752441406
      vertex -1297.782470703125 1600 238.83033752441406
    endloop
  endfacet
  facet normal -0.5877852714110393 0 -0.8090169804844958
    outer loop
      vertex -1297.782470703125 1700 238.83033752441406
      vertex -1450 1600 349.4228515625
      vertex -1450 1700 349.4228515625
    endloop
  endfacet
  facet normal -0.9510565479082206 0 -0.3090168970799149
    outer loop
      vertex -1019.6671752929688 1600 -242.8794708251953
      vertex -1077.80908203125 1700 -63.93701934814453
      vertex -1019.6671752929688 1700 -242.8794708251953
    endloop
  endfacet
  facet normal -0.9510565479082206 0 -0.3090168970799149
    outer loop
      vertex -1077.80908203125 1700 -63.93701934814453
      vertex -1019.6671752929688 1600 -242.8794708251953
      vertex -1077.80908203125 1600 -63.93701934814453
    endloop
  endfacet
  facet normal 0.9510566432452076 0 -0.3090166036625834
    outer loop
      vertex -2722.19091796875 1600 -63.93701934814453
      vertex -2780.332763671875 1700 -242.8794708251953
      vertex -2722.19091796875 1700 -63.93701934814453
    endloop
  endfacet
  facet normal 0.9510566432452076 0 -0.3090166036625834
    outer loop
      vertex -2780.332763671875 1700 -242.8794708251953
      vertex -2722.19091796875 1600 -63.93701934814453
      vertex -2780.332763671875 1600 -242.8794708251953
    endloop
  endfacet
  facet normal 0.7431449243531789 0 -0.6691304965461581
    outer loop
      vertex -2502.217529296875 1600 238.83033752441406
      vertex -2628.115234375 1700 99.00672912597656
      vertex -2502.217529296875 1700 238.83033752441406
    endloop
  endfacet
  facet normal 0.7431449243531789 0 -0.6691304965461581
    outer loop
      vertex -2628.115234375 1700 99.00672912597656
      vertex -2502.217529296875 1600 238.83033752441406
      vertex -2628.115234375 1600 99.00672912597656
    endloop
  endfacet
  facet normal 0.8660252506270085 0 -0.5000002652763568
    outer loop
      vertex -2628.115234375 1600 99.00672912597656
      vertex -2722.19091796875 1700 -63.93701934814453
      vertex -2628.115234375 1700 99.00672912597656
    endloop
  endfacet
  facet normal 0.8660252506270085 0 -0.5000002652763568
    outer loop
      vertex -2722.19091796875 1700 -63.93701934814453
      vertex -2628.115234375 1600 99.00672912597656
      vertex -2722.19091796875 1600 -63.93701934814453
    endloop
  endfacet
  facet normal 0 0 -1
    outer loop
      vertex -1994.0755615234375 1600 465.0697021484375
      vertex -1805.9244384765625 1700 465.0697021484375
      vertex -1805.9244384765625 1600 465.0697021484375
    endloop
  endfacet
  facet normal 0 0 -1
    outer loop
      vertex -1805.9244384765625 1700 465.0697021484375
      vertex -1994.0755615234375 1600 465.0697021484375
      vertex -1994.0755615234375 1700 465.0697021484375
    endloop
  endfacet
  facet normal -0.9945218869858089 0 -0.10452854302144411
    outer loop
      vertex -1000 1600 -430
      vertex -1019.6671752929688 1700 -242.8794708251953
      vertex -1000 1700 -430
    endloop
  endfacet
  facet normal -0.9945218869858089 0 -0.10452854302144411
    outer loop
      vertex -1019.6671752929688 1700 -242.8794708251953
      vertex -1000 1600 -430
      vertex -1019.6671752929688 1600 -242.8794708251953
    endloop
  endfacet
  facet normal 0.40673658502671123 0 -0.9135454834877181
    outer loop
      vertex -2350 1600 349.4228515625
      vertex -2178.115234375 1700 425.95086669921875
      vertex -2178.115234375 1600 425.95086669921875
    endloop
  endfacet
  facet normal 0.40673658502671123 0 -0.9135454834877181
    outer loop
      vertex -2178.115234375 1700 425.95086669921875
      vertex -2350 1600 349.4228515625
      vertex -2350 1700 349.4228515625
    endloop
  endfacet
  facet normal 0.8660252202150269 0 0.500000317951413
    outer loop
      vertex -2722.19091796875 1600 -796.06298828125
      vertex -2628.115234375 1700 -959.0067138671875
      vertex -2722.19091796875 1700 -796.06298828125
    endloop
  endfacet
  facet normal 0.8660252202150269 0 0.500000317951413
    outer loop
      vertex -2628.115234375 1700 -959.0067138671875
      vertex -2722.19091796875 1600 -796.06298828125
      vertex -2628.115234375 1600 -959.0067138671875
    endloop
  endfacet
  facet normal 0.9510566393731059 0 0.30901661557970267
    outer loop
      vertex -2780.332763671875 1600 -617.1205444335938
      vertex -2722.19091796875 1700 -796.06298828125
      vertex -2780.332763671875 1700 -617.1205444335938
    endloop
  endfacet
  facet normal 0.9510566393731059 0 0.30901661557970267
    outer loop
      vertex -2722.19091796875 1700 -796.06298828125
      vertex -2780.332763671875 1600 -617.1205444335938
      vertex -2722.19091796875 1600 -796.06298828125
    endloop
  endfacet
  facet normal -0.951056544036112 0 0.30901690899704315
    outer loop
      vertex -1077.80908203125 1600 -796.06298828125
      vertex -1019.6671752929688 1700 -617.1205444335938
      vertex -1077.80908203125 1700 -796.06298828125
    endloop
  endfacet
  facet normal -0.951056544036112 0 0.30901690899704315
    outer loop
      vertex -1019.6671752929688 1700 -617.1205444335938
      vertex -1077.80908203125 1600 -796.06298828125
      vertex -1019.6671752929688 1600 -617.1205444335938
    endloop
  endfacet
  facet normal -0.8660252506270085 0 -0.5000002652763568
    outer loop
      vertex -1077.80908203125 1600 -63.93701934814453
      vertex -1171.884765625 1700 99.00672912597656
      vertex -1077.80908203125 1700 -63.93701934814453
    endloop
  endfacet
  facet normal -0.8660252506270085 0 -0.5000002652763568
    outer loop
      vertex -1171.884765625 1700 99.00672912597656
      vertex -1077.80908203125 1600 -63.93701934814453
      vertex -1171.884765625 1600 99.00672912597656
    endloop
  endfacet
  facet normal -0.9945218878719089 0 0.10452853459077227
    outer loop
      vertex -1019.6671752929688 1600 -617.1205444335938
      vertex -1000 1700 -430
      vertex -1019.6671752929688 1700 -617.1205444335938
    endloop
  endfacet
  facet normal -0.9945218878719089 0 0.10452853459077227
    outer loop
      vertex -1000 1700 -430
      vertex -1019.6671752929688 1600 -617.1205444335938
      vertex -1000 1600 -430
    endloop
  endfacet
  facet normal 0.7431449243531789 0 0.6691304965461581
    outer loop
      vertex -2628.115234375 1600 -959.0067138671875
      vertex -2502.217529296875 1700 -1098.830322265625
      vertex -2628.115234375 1700 -959.0067138671875
    endloop
  endfacet
  facet normal 0.7431449243531789 0 0.6691304965461581
    outer loop
      vertex -2502.217529296875 1700 -1098.830322265625
      vertex -2628.115234375 1600 -959.0067138671875
      vertex -2502.217529296875 1600 -1098.830322265625
    endloop
  endfacet
  facet normal 0.20791166730929686 0 -0.9781476057306833
    outer loop
      vertex -2178.115234375 1600 425.95086669921875
      vertex -1994.0755615234375 1700 465.0697021484375
      vertex -1994.0755615234375 1600 465.0697021484375
    endloop
  endfacet
  facet normal 0.20791166730929686 0 -0.9781476057306833
    outer loop
      vertex -1994.0755615234375 1700 465.0697021484375
      vertex -2178.115234375 1600 425.95086669921875
      vertex -2178.115234375 1700 425.95086669921875
    endloop
  endfacet
  facet normal -0.8660252202150269 0 0.500000317951413
    outer loop
      vertex -1171.884765625 1600 -959.0067138671875
      vertex -1077.80908203125 1700 -796.06298828125
      vertex -1171.884765625 1700 -959.0067138671875
    endloop
  endfacet
  facet normal -0.8660252202150269 0 0.500000317951413
    outer loop
      vertex -1077.80908203125 1700 -796.06298828125
      vertex -1171.884765625 1600 -959.0067138671875
      vertex -1077.80908203125 1600 -796.06298828125
    endloop
  endfacet
  facet normal -0.20791166730929686 0 -0.9781476057306833
    outer loop
      vertex -1805.9244384765625 1600 465.0697021484375
      vertex -1621.884765625 1700 425.95086669921875
      vertex -1621.884765625 1600 425.95086669921875
    endloop
  endfacet
  facet normal -0.20791166730929686 0 -0.9781476057306833
    outer loop
      vertex -1621.884765625 1700 425.95086669921875
      vertex -1805.9244384765625 1600 465.0697021484375
      vertex -1805.9244384765625 1700 465.0697021484375
    endloop
  endfacet
  facet normal -0.40673658502671123 0 -0.9135454834877181
    outer loop
      vertex -1621.884765625 1600 425.95086669921875
      vertex -1450 1700 349.4228515625
      vertex -1450 1600 349.4228515625
    endloop
  endfacet
  facet normal -0.40673658502671123 0 -0.9135454834877181
    outer loop
      vertex -1450 1700 349.4228515625
      vertex -1621.884765625 1600 425.95086669921875
      vertex -1621.884765625 1700 425.95086669921875
    endloop
  endfacet
  facet normal 0.951056363970017 0 -0.30901746318311907
    outer loop
      vertex -2452.449951171875 1600 1563.7052001953125
      vertex -2487.981201171875 1700 1454.3514404296875
      vertex -2452.449951171875 1700 1563.7052001953125
    endloop
  endfacet
  facet normal 0.951056363970017 0 -0.30901746318311907
    outer loop
      vertex -2487.981201171875 1700 1454.3514404296875
      vertex -2452.449951171875 1600 1563.7052001953125
      vertex -2487.981201171875 1600 1454.3514404296875
    endloop
  endfacet
  facet normal -0.7431450769577425 0 0.6691303270615306
    outer loop
      vertex -1581.9781494140625 1600 931.2703247070312
      vertex -1505.0406494140625 1700 1016.7181396484375
      vertex -1581.9781494140625 1700 931.2703247070312
    endloop
  endfacet
  facet normal -0.7431450769577425 0 0.6691303270615306
    outer loop
      vertex -1505.0406494140625 1700 1016.7181396484375
      vertex -1581.9781494140625 1600 931.2703247070312
      vertex -1505.0406494140625 1600 1016.7181396484375
    endloop
  endfacet
  facet normal -0.8660254450602145 0 0.4999999285082524
    outer loop
      vertex -1505.0406494140625 1600 1016.7181396484375
      vertex -1447.550048828125 1700 1116.2947998046875
      vertex -1505.0406494140625 1700 1016.7181396484375
    endloop
  endfacet
  facet normal -0.8660254450602145 0 0.4999999285082524
    outer loop
      vertex -1447.550048828125 1700 1116.2947998046875
      vertex -1505.0406494140625 1600 1016.7181396484375
      vertex -1447.550048828125 1600 1116.2947998046875
    endloop
  endfacet
  facet normal 0.7431450769577425 0 0.6691303270615306
    outer loop
      vertex -2394.959228515625 1600 1016.7181396484375
      vertex -2318.021728515625 1700 931.2703247070312
      vertex -2394.959228515625 1700 1016.7181396484375
    endloop
  endfacet
  facet normal 0.7431450769577425 0 0.6691303270615306
    outer loop
      vertex -2318.021728515625 1700 931.2703247070312
      vertex -2394.959228515625 1600 1016.7181396484375
      vertex -2318.021728515625 1600 931.2703247070312
    endloop
  endfacet
  facet normal 0.40673610053485 0 0.913545699197202
    outer loop
      vertex -2225 1700 863.68603515625
      vertex -2119.959228515625 1600 816.9189453125
      vertex -2119.959228515625 1700 816.9189453125
    endloop
  endfacet
  facet normal 0.40673610053485 0 0.913545699197202
    outer loop
      vertex -2119.959228515625 1600 816.9189453125
      vertex -2225 1700 863.68603515625
      vertex -2225 1600 863.68603515625
    endloop
  endfacet
  facet normal 0.40673610053485 0 -0.913545699197202
    outer loop
      vertex -2225 1600 1816.31396484375
      vertex -2119.959228515625 1700 1863.0810546875
      vertex -2119.959228515625 1600 1863.0810546875
    endloop
  endfacet
  facet normal 0.40673610053485 0 -0.913545699197202
    outer loop
      vertex -2119.959228515625 1700 1863.0810546875
      vertex -2225 1600 1816.31396484375
      vertex -2225 1700 1816.31396484375
    endloop
  endfacet
  facet normal 0.994521915140946 0 0.10452827514306894
    outer loop
      vertex -2500 1600 1340
      vertex -2487.981201171875 1700 1225.6485595703125
      vertex -2500 1700 1340
    endloop
  endfacet
  facet normal 0.994521915140946 0 0.10452827514306894
    outer loop
      vertex -2487.981201171875 1700 1225.6485595703125
      vertex -2500 1600 1340
      vertex -2487.981201171875 1600 1225.6485595703125
    endloop
  endfacet
  facet normal 0.994521915140946 0 -0.10452827514306894
    outer loop
      vertex -2487.981201171875 1600 1454.3514404296875
      vertex -2500 1700 1340
      vertex -2487.981201171875 1700 1454.3514404296875
    endloop
  endfacet
  facet normal 0.994521915140946 0 -0.10452827514306894
    outer loop
      vertex -2500 1700 1340
      vertex -2487.981201171875 1600 1454.3514404296875
      vertex -2500 1600 1340
    endloop
  endfacet
  facet normal 0.5877855241321045 0 0.8090167968718246
    outer loop
      vertex -2318.021728515625 1700 931.2703247070312
      vertex -2225 1600 863.68603515625
      vertex -2225 1700 863.68603515625
    endloop
  endfacet
  facet normal 0.5877855241321045 0 0.8090167968718246
    outer loop
      vertex -2225 1600 863.68603515625
      vertex -2318.021728515625 1700 931.2703247070312
      vertex -2318.021728515625 1600 931.2703247070312
    endloop
  endfacet
  facet normal -0.587785019285616 0 0.8090171636642871
    outer loop
      vertex -1675 1700 863.68603515625
      vertex -1581.9781494140625 1600 931.2703247070312
      vertex -1581.9781494140625 1700 931.2703247070312
    endloop
  endfacet
  facet normal -0.587785019285616 0 0.8090171636642871
    outer loop
      vertex -1581.9781494140625 1600 931.2703247070312
      vertex -1675 1700 863.68603515625
      vertex -1675 1600 863.68603515625
    endloop
  endfacet
  facet normal -0.994521915140946 0 0.10452827514306894
    outer loop
      vertex -1412.018798828125 1600 1225.6485595703125
      vertex -1400 1700 1340
      vertex -1412.018798828125 1700 1225.6485595703125
    endloop
  endfacet
  facet normal -0.994521915140946 0 0.10452827514306894
    outer loop
      vertex -1400 1700 1340
      vertex -1412.018798828125 1600 1225.6485595703125
      vertex -1400 1600 1340
    endloop
  endfacet
  facet normal 0.8660249853503077 0 0.5000007247484741
    outer loop
      vertex -2452.449951171875 1600 1116.2947998046875
      vertex -2394.959228515625 1700 1016.7181396484375
      vertex -2452.449951171875 1700 1116.2947998046875
    endloop
  endfacet
  facet normal 0.8660249853503077 0 0.5000007247484741
    outer loop
      vertex -2394.959228515625 1700 1016.7181396484375
      vertex -2452.449951171875 1600 1116.2947998046875
      vertex -2394.959228515625 1600 1016.7181396484375
    endloop
  endfacet
  facet normal 0.5877858715627058 0 -0.809016544448425
    outer loop
      vertex -2318.021728515625 1600 1748.7296142578125
      vertex -2225 1700 1816.31396484375
      vertex -2225 1600 1816.31396484375
    endloop
  endfacet
  facet normal 0.5877858715627058 0 -0.809016544448425
    outer loop
      vertex -2225 1700 1816.31396484375
      vertex -2318.021728515625 1600 1748.7296142578125
      vertex -2318.021728515625 1700 1748.7296142578125
    endloop
  endfacet
  facet normal -0.2079119825895801 0 -0.9781475387157451
    outer loop
      vertex -1892.5093994140625 1600 1886.987060546875
      vertex -1780.0406494140625 1700 1863.0810546875
      vertex -1780.0406494140625 1600 1863.0810546875
    endloop
  endfacet
  facet normal -0.2079119825895801 0 -0.9781475387157451
    outer loop
      vertex -1780.0406494140625 1700 1863.0810546875
      vertex -1892.5093994140625 1600 1886.987060546875
      vertex -1892.5093994140625 1700 1886.987060546875
    endloop
  endfacet
  facet normal 0 0 -1
    outer loop
      vertex -2007.4906005859375 1600 1886.987060546875
      vertex -1892.5093994140625 1700 1886.987060546875
      vertex -1892.5093994140625 1600 1886.987060546875
    endloop
  endfacet
  facet normal 0 0 -1
    outer loop
      vertex -1892.5093994140625 1700 1886.987060546875
      vertex -2007.4906005859375 1600 1886.987060546875
      vertex -2007.4906005859375 1700 1886.987060546875
    endloop
  endfacet
  facet normal 0.20791219849665893 0 -0.9781474928231867
    outer loop
      vertex -2119.959228515625 1600 1863.0810546875
      vertex -2007.4906005859375 1700 1886.987060546875
      vertex -2007.4906005859375 1600 1886.987060546875
    endloop
  endfacet
  facet normal 0.20791219849665893 0 -0.9781474928231867
    outer loop
      vertex -2007.4906005859375 1700 1886.987060546875
      vertex -2119.959228515625 1600 1863.0810546875
      vertex -2119.959228515625 1700 1863.0810546875
    endloop
  endfacet
  facet normal -0.7431448392877299 0 -0.6691305910209262
    outer loop
      vertex -1505.0406494140625 1600 1663.2818603515625
      vertex -1581.9781494140625 1700 1748.7296142578125
      vertex -1505.0406494140625 1700 1663.2818603515625
    endloop
  endfacet
  facet normal -0.7431448392877299 0 -0.6691305910209262
    outer loop
      vertex -1581.9781494140625 1700 1748.7296142578125
      vertex -1505.0406494140625 1600 1663.2818603515625
      vertex -1581.9781494140625 1600 1748.7296142578125
    endloop
  endfacet
  facet normal 0.7431448392877299 0 -0.6691305910209262
    outer loop
      vertex -2318.021728515625 1600 1748.7296142578125
      vertex -2394.959228515625 1700 1663.2818603515625
      vertex -2318.021728515625 1700 1748.7296142578125
    endloop
  endfacet
  facet normal 0.7431448392877299 0 -0.6691305910209262
    outer loop
      vertex -2394.959228515625 1700 1663.2818603515625
      vertex -2318.021728515625 1600 1748.7296142578125
      vertex -2394.959228515625 1600 1663.2818603515625
    endloop
  endfacet
  facet normal 0.8660249853503077 0 -0.5000007247484741
    outer loop
      vertex -2394.959228515625 1600 1663.2818603515625
      vertex -2452.449951171875 1700 1563.7052001953125
      vertex -2394.959228515625 1700 1663.2818603515625
    endloop
  endfacet
  facet normal 0.8660249853503077 0 -0.5000007247484741
    outer loop
      vertex -2452.449951171875 1700 1563.7052001953125
      vertex -2394.959228515625 1600 1663.2818603515625
      vertex -2452.449951171875 1600 1563.7052001953125
    endloop
  endfacet
  facet normal -0.4067364950155938 0 -0.9135455235632376
    outer loop
      vertex -1780.0406494140625 1600 1863.0810546875
      vertex -1675 1700 1816.31396484375
      vertex -1675 1600 1816.31396484375
    endloop
  endfacet
  facet normal -0.4067364950155938 0 -0.9135455235632376
    outer loop
      vertex -1675 1700 1816.31396484375
      vertex -1780.0406494140625 1600 1863.0810546875
      vertex -1780.0406494140625 1700 1863.0810546875
    endloop
  endfacet
  facet normal 0.951056363970017 0 0.30901746318311907
    outer loop
      vertex -2487.981201171875 1600 1225.6485595703125
      vertex -2452.449951171875 1700 1116.2947998046875
      vertex -2487.981201171875 1700 1225.6485595703125
    endloop
  endfacet
  facet normal 0.951056363970017 0 0.30901746318311907
    outer loop
      vertex -2452.449951171875 1700 1116.2947998046875
      vertex -2487.981201171875 1600 1225.6485595703125
      vertex -2452.449951171875 1600 1116.2947998046875
    endloop
  endfacet
  facet normal -0.5877853667162338 0 -0.8090169112412066
    outer loop
      vertex -1675 1600 1816.31396484375
      vertex -1581.9781494140625 1700 1748.7296142578125
      vertex -1581.9781494140625 1600 1748.7296142578125
    endloop
  endfacet
  facet normal -0.5877853667162338 0 -0.8090169112412066
    outer loop
      vertex -1581.9781494140625 1700 1748.7296142578125
      vertex -1675 1600 1816.31396484375
      vertex -1675 1700 1816.31396484375
    endloop
  endfacet
  facet normal 0 0 1
    outer loop
      vertex -2007.4906005859375 1700 793.012939453125
      vertex -1892.5093994140625 1600 793.012939453125
      vertex -1892.5093994140625 1700 793.012939453125
    endloop
  endfacet
  facet normal 0 0 1
    outer loop
      vertex -1892.5093994140625 1600 793.012939453125
      vertex -2007.4906005859375 1700 793.012939453125
      vertex -2007.4906005859375 1600 793.012939453125
    endloop
  endfacet
  facet normal -0.994521915140946 0 -0.10452827514306894
    outer loop
      vertex -1400 1600 1340
      vertex -1412.018798828125 1700 1454.3514404296875
      vertex -1400 1700 1340
    endloop
  endfacet
  facet normal -0.994521915140946 0 -0.10452827514306894
    outer loop
      vertex -1412.018798828125 1700 1454.3514404296875
      vertex -1400 1600 1340
      vertex -1412.018798828125 1600 1454.3514404296875
    endloop
  endfacet
  facet normal -0.951056363970017 0 0.30901746318311907
    outer loop
      vertex -1447.550048828125 1600 1116.2947998046875
      vertex -1412.018798828125 1700 1225.6485595703125
      vertex -1447.550048828125 1700 1116.2947998046875
    endloop
  endfacet
  facet normal -0.951056363970017 0 0.30901746318311907
    outer loop
      vertex -1412.018798828125 1700 1225.6485595703125
      vertex -1447.550048828125 1600 1116.2947998046875
      vertex -1412.018798828125 1600 1225.6485595703125
    endloop
  endfacet
  facet normal -0.4067364950155938 0 0.9135455235632376
    outer loop
      vertex -1780.0406494140625 1700 816.9189453125
      vertex -1675 1600 863.68603515625
      vertex -1675 1700 863.68603515625
    endloop
  endfacet
  facet normal -0.4067364950155938 0 0.9135455235632376
    outer loop
      vertex -1675 1600 863.68603515625
      vertex -1780.0406494140625 1700 816.9189453125
      vertex -1780.0406494140625 1600 816.9189453125
    endloop
  endfacet
  facet normal -0.2079119825895801 0 0.9781475387157451
    outer loop
      vertex -1892.5093994140625 1700 793.012939453125
      vertex -1780.0406494140625 1600 816.9189453125
      vertex -1780.0406494140625 1700 816.9189453125
    endloop
  endfacet
  facet normal -0.2079119825895801 0 0.9781475387157451
    outer loop
      vertex -1780.0406494140625 1600 816.9189453125
      vertex -1892.5093994140625 1700 793.012939453125
      vertex -1892.5093994140625 1600 793.012939453125
    endloop
  endfacet
  facet normal 0.20791219849665893 0 0.9781474928231867
    outer loop
      vertex -2119.959228515625 1700 816.9189453125
      vertex -2007.4906005859375 1600 793.012939453125
      vertex -2007.4906005859375 1700 793.012939453125
    endloop
  endfacet
  facet normal 0.20791219849665893 0 0.9781474928231867
    outer loop
      vertex -2007.4906005859375 1600 793.012939453125
      vertex -2119.959228515625 1700 816.9189453125
      vertex -2119.959228515625 1600 816.9189453125
    endloop
  endfacet
  facet normal -0.8660254450602145 0 -0.4999999285082524
    outer loop
      vertex -1447.550048828125 1600 1563.7052001953125
      vertex -1505.0406494140625 1700 1663.2818603515625
      vertex -1447.550048828125 1700 1563.7052001953125
    endloop
  endfacet
  facet normal -0.8660254450602145 0 -0.4999999285082524
    outer loop
      vertex -1505.0406494140625 1700 1663.2818603515625
      vertex -1447.550048828125 1600 1563.7052001953125
      vertex -1505.0406494140625 1600 1663.2818603515625
    endloop
  endfacet
  facet normal -0.951056363970017 0 -0.30901746318311907
    outer loop
      vertex -1412.018798828125 1600 1454.3514404296875
      vertex -1447.550048828125 1700 1563.7052001953125
      vertex -1412.018798828125 1700 1454.3514404296875
    endloop
  endfacet
  facet normal -0.951056363970017 0 -0.30901746318311907
    outer loop
      vertex -1447.550048828125 1700 1563.7052001953125
      vertex -1412.018798828125 1600 1454.3514404296875
      vertex -1447.550048828125 1600 1563.7052001953125
    endloop
  endfacet
  facet normal -1 0 0
    outer loop
      vertex -6295 -2875 -3374
      vertex -6295 2250 3270
      vertex -6295 2250 -3374
    endloop
  endfacet
  facet normal -1 0 0
    outer loop
      vertex -6295 2250 3270
      vertex -6295 -2875 -3374
      vertex -6295 -2875 3270
    endloop
  endfacet
  facet normal 0 0 1
    outer loop
      vertex -6295 2250 3270
      vertex 3450 -2875 3270
      vertex 3450 2250 3270
    endloop
  endfacet
  facet normal 0 0 1
    outer loop
      vertex 3450 -2875 3270
      vertex -6295 2250 3270
      vertex -6295 -2875 3270
    endloop
  endfacet
  facet normal 0 0 -1
    outer loop
      vertex -2295 -2875 -3374
      vertex -6295 -2875 -3374
      vertex -2295 2150 -3374
    endloop
  endfacet
  facet normal 0 0 -1
    outer loop
      vertex -2295 2150 -3374
      vertex 3450 2250 -3374
      vertex 3450 2150 -3374
    endloop
  endfacet
  facet normal 0 0 -1
    outer loop
      vertex -2295 2150 -3374
      vertex -6295 2250 -3374
      vertex 3450 2250 -3374
    endloop
  endfacet
  facet normal 0 0 -1
    outer loop
      vertex -6295 2250 -3374
      vertex -2295 2150 -3374
      vertex -6295 -2875 -3374
    endloop
  endfacet
  facet normal 1 0 0
    outer loop
      vertex -2295 1700 -2374
      vertex -2295 2150 -3374
      vertex -2295 2150 -2374
    endloop
  endfacet
  facet normal 1 0 0
    outer loop
      vertex -2295 1600 -2374
      vertex -2295 2150 -3374
      vertex -2295 1700 -2374
    endloop
  endfacet
  facet normal 1 0 0
    outer loop
      vertex -2295 -2875 -3374
      vertex -2295 1600 -2374
      vertex -2295 -2875 -2374
    endloop
  endfacet
  facet normal 1 0 0
    outer loop
      vertex -2295 1600 -2374
      vertex -2295 -2875 -3374
      vertex -2295 2150 -3374
    endloop
  endfacet
  facet normal -0.9510561180906905 0 -0.30901821991958145
    outer loop
      vertex -2429.611328125 1250 1126.4632568359375
      vertex -2463.527587890625 2150 1230.8463134765625
      vertex -2429.611328125 2150 1126.4632568359375
    endloop
  endfacet
  facet normal -0.9510561180906905 0 -0.30901821991958145
    outer loop
      vertex -2463.527587890625 2150 1230.8463134765625
      vertex -2429.611328125 1250 1126.4632568359375
      vertex -2463.527587890625 1250 1230.8463134765625
    endloop
  endfacet
  facet normal -0.9945219925838402 0 0.10452753831918209
    outer loop
      vertex -2475 1250 1340
      vertex -2463.527587890625 2150 1449.1536865234375
      vertex -2475 2150 1340
    endloop
  endfacet
  facet normal -0.9945219925838402 0 0.10452753831918209
    outer loop
      vertex -2463.527587890625 2150 1449.1536865234375
      vertex -2475 1250 1340
      vertex -2463.527587890625 1250 1449.1536865234375
    endloop
  endfacet
  facet normal -0.5877858865547408 0 0.8090165335560561
    outer loop
      vertex -2301.29345703125 2150 1730.1510009765625
      vertex -2212.5 1250 1794.663330078125
      vertex -2212.5 2150 1794.663330078125
    endloop
  endfacet
  facet normal -0.5877858865547408 0 0.8090165335560561
    outer loop
      vertex -2212.5 1250 1794.663330078125
      vertex -2301.29345703125 2150 1730.1510009765625
      vertex -2301.29345703125 1250 1730.1510009765625
    endloop
  endfacet
  facet normal 0.7431450580274438 0 -0.6691303480857728
    outer loop
      vertex -1525.26611328125 1250 1031.4127197265625
      vertex -1598.7064208984375 2150 949.8489379882812
      vertex -1525.26611328125 2150 1031.4127197265625
    endloop
  endfacet
  facet normal 0.7431450580274438 0 -0.6691303480857728
    outer loop
      vertex -1598.7064208984375 2150 949.8489379882812
      vertex -1525.26611328125 1250 1031.4127197265625
      vertex -1598.7064208984375 1250 949.8489379882812
    endloop
  endfacet
  facet normal 0.9945218769637275 0 -0.10452863837506249
    outer loop
      vertex -1425 1250 1340
      vertex -1436.4725341796875 2150 1230.8463134765625
      vertex -1425 2150 1340
    endloop
  endfacet
  facet normal 0.9945218769637275 0 -0.10452863837506249
    outer loop
      vertex -1436.4725341796875 2150 1230.8463134765625
      vertex -1425 1250 1340
      vertex -1436.4725341796875 1250 1230.8463134765625
    endloop
  endfacet
  facet normal 0 0 -1
    outer loop
      vertex -2004.87744140625 1250 817.8759765625
      vertex -1895.12255859375 2150 817.8759765625
      vertex -1895.12255859375 1250 817.8759765625
    endloop
  endfacet
  facet normal 0 0 -1
    outer loop
      vertex -1895.12255859375 2150 817.8759765625
      vertex -2004.87744140625 1250 817.8759765625
      vertex -2004.87744140625 2150 817.8759765625
    endloop
  endfacet
  facet normal -0.9510561180906905 0 0.30901821991958145
    outer loop
      vertex -2463.527587890625 1250 1449.1536865234375
      vertex -2429.611328125 2150 1553.5367431640625
      vertex -2463.527587890625 2150 1449.1536865234375
    endloop
  endfacet
  facet normal -0.9510561180906905 0 0.30901821991958145
    outer loop
      vertex -2429.611328125 2150 1553.5367431640625
      vertex -2463.527587890625 1250 1449.1536865234375
      vertex -2429.611328125 1250 1553.5367431640625
    endloop
  endfacet
  facet normal -0.9945219925838402 0 -0.10452753831918209
    outer loop
      vertex -2463.527587890625 1250 1230.8463134765625
      vertex -2475 2150 1340
      vertex -2463.527587890625 2150 1230.8463134765625
    endloop
  endfacet
  facet normal -0.9945219925838402 0 -0.10452753831918209
    outer loop
      vertex -2475 2150 1340
      vertex -2463.527587890625 1250 1230.8463134765625
      vertex -2475 1250 1340
    endloop
  endfacet
  facet normal -0.5877855225797864 0 -0.8090167979996505
    outer loop
      vertex -2301.29345703125 1250 949.8489379882812
      vertex -2212.5 2150 885.336669921875
      vertex -2212.5 1250 885.336669921875
    endloop
  endfacet
  facet normal -0.5877855225797864 0 -0.8090167979996505
    outer loop
      vertex -2212.5 2150 885.336669921875
      vertex -2301.29345703125 1250 949.8489379882812
      vertex -2301.29345703125 2150 949.8489379882812
    endloop
  endfacet
  facet normal -0.7431442559816313 0 0.6691312388474384
    outer loop
      vertex -2374.73388671875 1250 1648.5872802734375
      vertex -2301.29345703125 2150 1730.1510009765625
      vertex -2374.73388671875 2150 1648.5872802734375
    endloop
  endfacet
  facet normal -0.7431442559816313 0 0.6691312388474384
    outer loop
      vertex -2301.29345703125 2150 1730.1510009765625
      vertex -2374.73388671875 1250 1648.5872802734375
      vertex -2301.29345703125 1250 1730.1510009765625
    endloop
  endfacet
  facet normal -0.7431445049696787 0 -0.6691309623185668
    outer loop
      vertex -2301.29345703125 1250 949.8489379882812
      vertex -2374.73388671875 2150 1031.4127197265625
      vertex -2301.29345703125 2150 949.8489379882812
    endloop
  endfacet
  facet normal -0.7431445049696787 0 -0.6691309623185668
    outer loop
      vertex -2374.73388671875 2150 1031.4127197265625
      vertex -2301.29345703125 1250 949.8489379882812
      vertex -2374.73388671875 1250 1031.4127197265625
    endloop
  endfacet
  facet normal 0.9510564449612922 0 -0.30901721391791237
    outer loop
      vertex -1436.4725341796875 1250 1230.8463134765625
      vertex -1470.388671875 2150 1126.4632568359375
      vertex -1436.4725341796875 2150 1230.8463134765625
    endloop
  endfacet
  facet normal 0.9510564449612922 0 -0.30901721391791237
    outer loop
      vertex -1470.388671875 2150 1126.4632568359375
      vertex -1436.4725341796875 1250 1230.8463134765625
      vertex -1470.388671875 1250 1126.4632568359375
    endloop
  endfacet
  facet normal 0.2079118568726718 0 -0.9781475654377296
    outer loop
      vertex -1895.12255859375 1250 817.8759765625
      vertex -1787.76611328125 2150 840.6953125
      vertex -1787.76611328125 1250 840.6953125
    endloop
  endfacet
  facet normal 0.2079118568726718 0 -0.9781475654377296
    outer loop
      vertex -1787.76611328125 2150 840.6953125
      vertex -1895.12255859375 1250 817.8759765625
      vertex -1895.12255859375 2150 817.8759765625
    endloop
  endfacet
  facet normal -0.40673670105299353 0 -0.9135454318294891
    outer loop
      vertex -2212.5 1250 885.336669921875
      vertex -2112.23388671875 2150 840.6953125
      vertex -2112.23388671875 1250 840.6953125
    endloop
  endfacet
  facet normal -0.40673670105299353 0 -0.9135454318294891
    outer loop
      vertex -2112.23388671875 2150 840.6953125
      vertex -2212.5 1250 885.336669921875
      vertex -2212.5 2150 885.336669921875
    endloop
  endfacet
  facet normal -0.2079118568726718 0 0.9781475654377296
    outer loop
      vertex -2112.23388671875 2150 1839.3046875
      vertex -2004.87744140625 1250 1862.1240234375
      vertex -2004.87744140625 2150 1862.1240234375
    endloop
  endfacet
  facet normal -0.2079118568726718 0 0.9781475654377296
    outer loop
      vertex -2004.87744140625 1250 1862.1240234375
      vertex -2112.23388671875 2150 1839.3046875
      vertex -2112.23388671875 1250 1839.3046875
    endloop
  endfacet
  facet normal -0.8660254502615531 0 -0.4999999194992677
    outer loop
      vertex -2374.73388671875 1250 1031.4127197265625
      vertex -2429.611328125 2150 1126.4632568359375
      vertex -2374.73388671875 2150 1031.4127197265625
    endloop
  endfacet
  facet normal -0.8660254502615531 0 -0.4999999194992677
    outer loop
      vertex -2429.611328125 2150 1126.4632568359375
      vertex -2374.73388671875 1250 1031.4127197265625
      vertex -2429.611328125 1250 1126.4632568359375
    endloop
  endfacet
  facet normal 0.5877853576679114 0 0.8090169178151996
    outer loop
      vertex -1687.5 2150 1794.663330078125
      vertex -1598.7064208984375 1250 1730.1510009765625
      vertex -1598.7064208984375 2150 1730.1510009765625
    endloop
  endfacet
  facet normal 0.5877853576679114 0 0.8090169178151996
    outer loop
      vertex -1598.7064208984375 1250 1730.1510009765625
      vertex -1687.5 2150 1794.663330078125
      vertex -1687.5 1250 1794.663330078125
    endloop
  endfacet
  facet normal 0.40673670105299353 0 0.9135454318294891
    outer loop
      vertex -1787.76611328125 2150 1839.3046875
      vertex -1687.5 1250 1794.663330078125
      vertex -1687.5 2150 1794.663330078125
    endloop
  endfacet
  facet normal 0.40673670105299353 0 0.9135454318294891
    outer loop
      vertex -1687.5 1250 1794.663330078125
      vertex -1787.76611328125 2150 1839.3046875
      vertex -1787.76611328125 1250 1839.3046875
    endloop
  endfacet
  facet normal 0 0 1
    outer loop
      vertex -2004.87744140625 2150 1862.1240234375
      vertex -1895.12255859375 1250 1862.1240234375
      vertex -1895.12255859375 2150 1862.1240234375
    endloop
  endfacet
  facet normal 0 0 1
    outer loop
      vertex -1895.12255859375 1250 1862.1240234375
      vertex -2004.87744140625 2150 1862.1240234375
      vertex -2004.87744140625 1250 1862.1240234375
    endloop
  endfacet
  facet normal -0.8660254502615531 0 0.4999999194992677
    outer loop
      vertex -2429.611328125 1250 1553.5367431640625
      vertex -2374.73388671875 2150 1648.5872802734375
      vertex -2429.611328125 2150 1553.5367431640625
    endloop
  endfacet
  facet normal -0.8660254502615531 0 0.4999999194992677
    outer loop
      vertex -2374.73388671875 2150 1648.5872802734375
      vertex -2429.611328125 1250 1553.5367431640625
      vertex -2374.73388671875 1250 1648.5872802734375
    endloop
  endfacet
  facet normal 0.40673670105299353 0 -0.9135454318294891
    outer loop
      vertex -1787.76611328125 1250 840.6953125
      vertex -1687.5 2150 885.336669921875
      vertex -1687.5 1250 885.336669921875
    endloop
  endfacet
  facet normal 0.40673670105299353 0 -0.9135454318294891
    outer loop
      vertex -1687.5 2150 885.336669921875
      vertex -1787.76611328125 1250 840.6953125
      vertex -1787.76611328125 2150 840.6953125
    endloop
  endfacet
  facet normal 0.9510564449612922 0 0.30901721391791237
    outer loop
      vertex -1470.388671875 1250 1553.5367431640625
      vertex -1436.4725341796875 2150 1449.1536865234375
      vertex -1470.388671875 2150 1553.5367431640625
    endloop
  endfacet
  facet normal 0.9510564449612922 0 0.30901721391791237
    outer loop
      vertex -1436.4725341796875 2150 1449.1536865234375
      vertex -1470.388671875 1250 1553.5367431640625
      vertex -1436.4725341796875 1250 1449.1536865234375
    endloop
  endfacet
  facet normal 0.8660254502615531 0 0.4999999194992677
    outer loop
      vertex -1525.26611328125 1250 1648.5872802734375
      vertex -1470.388671875 2150 1553.5367431640625
      vertex -1525.26611328125 2150 1648.5872802734375
    endloop
  endfacet
  facet normal 0.8660254502615531 0 0.4999999194992677
    outer loop
      vertex -1470.388671875 2150 1553.5367431640625
      vertex -1525.26611328125 1250 1648.5872802734375
      vertex -1470.388671875 1250 1553.5367431640625
    endloop
  endfacet
  facet normal -0.2079118568726718 0 -0.9781475654377296
    outer loop
      vertex -2112.23388671875 1250 840.6953125
      vertex -2004.87744140625 2150 817.8759765625
      vertex -2004.87744140625 1250 817.8759765625
    endloop
  endfacet
  facet normal -0.2079118568726718 0 -0.9781475654377296
    outer loop
      vertex -2004.87744140625 2150 817.8759765625
      vertex -2112.23388671875 1250 840.6953125
      vertex -2112.23388671875 2150 840.6953125
    endloop
  endfacet
  facet normal 0.7431448090396683 0 0.6691306246148021
    outer loop
      vertex -1598.7064208984375 1250 1730.1510009765625
      vertex -1525.26611328125 2150 1648.5872802734375
      vertex -1598.7064208984375 2150 1730.1510009765625
    endloop
  endfacet
  facet normal 0.7431448090396683 0 0.6691306246148021
    outer loop
      vertex -1525.26611328125 2150 1648.5872802734375
      vertex -1598.7064208984375 1250 1730.1510009765625
      vertex -1525.26611328125 1250 1648.5872802734375
    endloop
  endfacet
  facet normal 0.5877849936929387 0 -0.8090171822584438
    outer loop
      vertex -1687.5 1250 885.336669921875
      vertex -1598.7064208984375 2150 949.8489379882812
      vertex -1598.7064208984375 1250 949.8489379882812
    endloop
  endfacet
  facet normal 0.5877849936929387 0 -0.8090171822584438
    outer loop
      vertex -1598.7064208984375 2150 949.8489379882812
      vertex -1687.5 1250 885.336669921875
      vertex -1687.5 2150 885.336669921875
    endloop
  endfacet
  facet normal 0.9945218769637275 0 0.10452863837506249
    outer loop
      vertex -1436.4725341796875 1250 1449.1536865234375
      vertex -1425 2150 1340
      vertex -1436.4725341796875 2150 1449.1536865234375
    endloop
  endfacet
  facet normal 0.9945218769637275 0 0.10452863837506249
    outer loop
      vertex -1425 2150 1340
      vertex -1436.4725341796875 1250 1449.1536865234375
      vertex -1425 1250 1340
    endloop
  endfacet
  facet normal -0.40673670105299353 0 0.9135454318294891
    outer loop
      vertex -2212.5 2150 1794.663330078125
      vertex -2112.23388671875 1250 1839.3046875
      vertex -2112.23388671875 2150 1839.3046875
    endloop
  endfacet
  facet normal -0.40673670105299353 0 0.9135454318294891
    outer loop
      vertex -2112.23388671875 1250 1839.3046875
      vertex -2212.5 2150 1794.663330078125
      vertex -2212.5 1250 1794.663330078125
    endloop
  endfacet
  facet normal 0.8660254502615531 0 -0.4999999194992677
    outer loop
      vertex -1470.388671875 1250 1126.4632568359375
      vertex -1525.26611328125 2150 1031.4127197265625
      vertex -1470.388671875 2150 1126.4632568359375
    endloop
  endfacet
  facet normal 0.8660254502615531 0 -0.4999999194992677
    outer loop
      vertex -1525.26611328125 2150 1031.4127197265625
      vertex -1470.388671875 1250 1126.4632568359375
      vertex -1525.26611328125 1250 1031.4127197265625
    endloop
  endfacet
  facet normal 0.2079118568726718 0 0.9781475654377296
    outer loop
      vertex -1895.12255859375 2150 1862.1240234375
      vertex -1787.76611328125 1250 1839.3046875
      vertex -1787.76611328125 2150 1839.3046875
    endloop
  endfacet
  facet normal 0.2079118568726718 0 0.9781475654377296
    outer loop
      vertex -1787.76611328125 1250 1839.3046875
      vertex -1895.12255859375 2150 1862.1240234375
      vertex -1895.12255859375 1250 1862.1240234375
    endloop
  endfacet
  facet normal 0 -1 0
    outer loop
      vertex -2112.23388671875 1250 1839.3046875
      vertex -1895.12255859375 1250 1862.1240234375
      vertex -2004.87744140625 1250 1862.1240234375
    endloop
  endfacet
  facet normal 0 -1 0
    outer loop
      vertex -2112.23388671875 1250 1839.3046875
      vertex -1787.76611328125 1250 1839.3046875
      vertex -1895.12255859375 1250 1862.1240234375
    endloop
  endfacet
  facet normal 0 -1 0
    outer loop
      vertex -2212.5 1250 1794.663330078125
      vertex -1787.76611328125 1250 1839.3046875
      vertex -2112.23388671875 1250 1839.3046875
    endloop
  endfacet
  facet normal 0 -1 0
    outer loop
      vertex -2212.5 1250 1794.663330078125
      vertex -1687.5 1250 1794.663330078125
      vertex -1787.76611328125 1250 1839.3046875
    endloop
  endfacet
  facet normal 0 -1 0
    outer loop
      vertex -2301.29345703125 1250 1730.1510009765625
      vertex -1687.5 1250 1794.663330078125
      vertex -2212.5 1250 1794.663330078125
    endloop
  endfacet
  facet normal 0 -1 0
    outer loop
      vertex -2301.29345703125 1250 1730.1510009765625
      vertex -1598.7064208984375 1250 1730.1510009765625
      vertex -1687.5 1250 1794.663330078125
    endloop
  endfacet
  facet normal 0 -1 0
    outer loop
      vertex -2374.73388671875 1250 1648.5872802734375
      vertex -1598.7064208984375 1250 1730.1510009765625
      vertex -2301.29345703125 1250 1730.1510009765625
    endloop
  endfacet
  facet normal 0 -1 0
    outer loop
      vertex -2374.73388671875 1250 1648.5872802734375
      vertex -1525.26611328125 1250 1648.5872802734375
      vertex -1598.7064208984375 1250 1730.1510009765625
    endloop
  endfacet
  facet normal 0 -1 0
    outer loop
      vertex -2429.611328125 1250 1553.5367431640625
      vertex -1525.26611328125 1250 1648.5872802734375
      vertex -2374.73388671875 1250 1648.5872802734375
    endloop
  endfacet
  facet normal 0 -1 0
    outer loop
      vertex -2429.611328125 1250 1553.5367431640625
      vertex -1470.388671875 1250 1553.5367431640625
      vertex -1525.26611328125 1250 1648.5872802734375
    endloop
  endfacet
  facet normal 0 -1 0
    outer loop
      vertex -2463.527587890625 1250 1449.1536865234375
      vertex -1470.388671875 1250 1553.5367431640625
      vertex -2429.611328125 1250 1553.5367431640625
    endloop
  endfacet
  facet normal 0 -1 0
    outer loop
      vertex -2463.527587890625 1250 1449.1536865234375
      vertex -1436.4725341796875 1250 1449.1536865234375
      vertex -1470.388671875 1250 1553.5367431640625
    endloop
  endfacet
  facet normal 0 -1 0
    outer loop
      vertex -2475 1250 1340
      vertex -1436.4725341796875 1250 1449.1536865234375
      vertex -2463.527587890625 1250 1449.1536865234375
    endloop
  endfacet
  facet normal 0 -1 0
    outer loop
      vertex -2475 1250 1340
      vertex -1425 1250 1340
      vertex -1436.4725341796875 1250 1449.1536865234375
    endloop
  endfacet
  facet normal 0 -1 0
    outer loop
      vertex -2463.527587890625 1250 1230.8463134765625
      vertex -1425 1250 1340
      vertex -2475 1250 1340
    endloop
  endfacet
  facet normal 0 -1 0
    outer loop
      vertex -2463.527587890625 1250 1230.8463134765625
      vertex -1436.4725341796875 1250 1230.8463134765625
      vertex -1425 1250 1340
    endloop
  endfacet
  facet normal 0 -1 0
    outer loop
      vertex -2429.611328125 1250 1126.4632568359375
      vertex -1436.4725341796875 1250 1230.8463134765625
      vertex -2463.527587890625 1250 1230.8463134765625
    endloop
  endfacet
  facet normal 0 -1 0
    outer loop
      vertex -2429.611328125 1250 1126.4632568359375
      vertex -1470.388671875 1250 1126.4632568359375
      vertex -1436.4725341796875 1250 1230.8463134765625
    endloop
  endfacet
  facet normal 0 -1 0
    outer loop
      vertex -2374.73388671875 1250 1031.4127197265625
      vertex -1470.388671875 1250 1126.4632568359375
      vertex -2429.611328125 1250 1126.4632568359375
    endloop
  endfacet
  facet normal 0 -1 0
    outer loop
      vertex -2374.73388671875 1250 1031.4127197265625
      vertex -1525.26611328125 1250 1031.4127197265625
      vertex -1470.388671875 1250 1126.4632568359375
    endloop
  endfacet
  facet normal 0 -1 0
    outer loop
      vertex -2301.29345703125 1250 949.8489379882812
      vertex -1525.26611328125 1250 1031.4127197265625
      vertex -2374.73388671875 1250 1031.4127197265625
    endloop
  endfacet
  facet normal 0 -1 0
    outer loop
      vertex -2301.29345703125 1250 949.8489379882812
      vertex -1598.7064208984375 1250 949.8489379882812
      vertex -1525.26611328125 1250 1031.4127197265625
    endloop
  endfacet
  facet normal 0 -1 0
    outer loop
      vertex -2212.5 1250 885.336669921875
      vertex -1598.7064208984375 1250 949.8489379882812
      vertex -2301.29345703125 1250 949.8489379882812
    endloop
  endfacet
  facet normal 0 -1 0
    outer loop
      vertex -2212.5 1250 885.336669921875
      vertex -1687.5 1250 885.336669921875
      vertex -1598.7064208984375 1250 949.8489379882812
    endloop
  endfacet
  facet normal 0 -1 0
    outer loop
      vertex -2112.23388671875 1250 840.6953125
      vertex -1687.5 1250 885.336669921875
      vertex -2212.5 1250 885.336669921875
    endloop
  endfacet
  facet normal 0 -1 0
    outer loop
      vertex -2112.23388671875 1250 840.6953125
      vertex -1787.76611328125 1250 840.6953125
      vertex -1687.5 1250 885.336669921875
    endloop
  endfacet
  facet normal 0 -1 0
    outer loop
      vertex -2004.87744140625 1250 817.8759765625
      vertex -1787.76611328125 1250 840.6953125
      vertex -2112.23388671875 1250 840.6953125
    endloop
  endfacet
  facet normal 0 -1 0
    outer loop
      vertex -1787.76611328125 1250 840.6953125
      vertex -2004.87744140625 1250 817.8759765625
      vertex -1895.12255859375 1250 817.8759765625
    endloop
  endfacet
  facet normal 0 1 0
    outer loop
      vertex 3450 2250 -3374
      vertex -6295 2250 3270
      vertex 3450 2250 3270
    endloop
  endfacet
  facet normal 0 1 0
    outer loop
      vertex -6295 2250 3270
      vertex 3450 2250 -3374
      vertex -6295 2250 -3374
    endloop
  endfacet
endsolid OpenSCAD_Model
